<svg xmlns="http://www.w3.org/2000/svg" xmlns:xlink="http://www.w3.org/1999/xlink" width="500" zoomAndPan="magnify" viewBox="0 0 375 374.999991" height="500" preserveAspectRatio="xMidYMid meet" version="1.2"><defs><clipPath id="31bd5fcbe0"><path d="M 69.734375 67.0625 L 189.140625 67.0625 L 189.140625 253.921875 L 69.734375 253.921875 Z M 69.734375 67.0625 "/></clipPath><clipPath id="bc39aa4b0c"><path d="M 189.140625 99.714844 L 308.550781 99.714844 L 308.550781 286.578125 L 189.140625 286.578125 Z M 189.140625 99.714844 "/></clipPath></defs><g id="2355e42a76"><g clip-rule="nonzero" clip-path="url(#31bd5fcbe0)"><path style=" stroke:none;fill-rule:nonzero;fill:#ffffff;fill-opacity:1;" d="M 69.734375 67.0625 L 189.140625 67.0625 L 189.140625 254.101562 L 69.734375 254.101562 Z M 69.734375 67.0625 "/></g><g clip-rule="nonzero" clip-path="url(#bc39aa4b0c)"><path style=" stroke:none;fill-rule:nonzero;fill:#ffffff;fill-opacity:1;" d="M 189.140625 99.714844 L 308.550781 99.714844 L 308.550781 286.757812 L 189.140625 286.757812 Z M 189.140625 99.714844 "/></g><path style="fill:none;stroke-width:4;stroke-linecap:butt;stroke-linejoin:miter;stroke:#000000;stroke-opacity:1;stroke-miterlimit:4;" d="M 0.000806423 1.998759 L 244.180752 1.999742 " transform="matrix(0.97735,0.898363,-0.898363,0.97735,71.529199,65.108288)"/><path style="fill:none;stroke-width:4;stroke-linecap:butt;stroke-linejoin:miter;stroke:#000000;stroke-opacity:1;stroke-miterlimit:4;" d="M -0.00128692 2.00056 L 213.992921 1.999213 " transform="matrix(1.115999,-0.720624,0.720624,1.115999,68.290253,251.688324)"/></g></svg>