<svg xmlns="http://www.w3.org/2000/svg" xmlns:xlink="http://www.w3.org/1999/xlink" width="500" zoomAndPan="magnify" viewBox="0 0 375 374.999991" height="500" preserveAspectRatio="xMidYMid meet" version="1.0"><defs><clipPath id="1bea7e38ca"><path d="M 166 87 L 218 87 L 218 159 L 166 159 Z M 166 87 " clip-rule="nonzero"/></clipPath><clipPath id="abc73c25cd"><path d="M 203.46875 85.289062 L 230.261719 132.480469 L 180.546875 160.710938 L 153.753906 113.519531 Z M 203.46875 85.289062 " clip-rule="nonzero"/></clipPath><clipPath id="f59ddc46dc"><path d="M 216.515625 108.269531 L 205.808594 89.410156 C 205.0625 88.097656 203.710938 87.238281 202.199219 87.121094 C 200.691406 87.003906 199.222656 87.644531 198.28125 88.832031 L 168.363281 126.578125 C 165.832031 129.773438 165.488281 134.191406 167.503906 137.738281 L 178.210938 156.597656 C 178.960938 157.914062 180.3125 158.769531 181.820312 158.886719 C 183.328125 159.003906 184.796875 158.363281 185.738281 157.175781 L 215.65625 119.429688 C 218.191406 116.234375 218.53125 111.820312 216.515625 108.269531 Z M 216.515625 108.269531 " clip-rule="nonzero"/></clipPath><clipPath id="eeda454225"><path d="M 114 102 L 175 102 L 175 166 L 114 166 Z M 114 102 " clip-rule="nonzero"/></clipPath><clipPath id="649af88111"><path d="M 113.613281 105.988281 L 167.140625 98.960938 L 175.464844 162.382812 L 121.941406 169.410156 Z M 113.613281 105.988281 " clip-rule="nonzero"/></clipPath><clipPath id="6ad48ad8f4"><path d="M 136.835938 102.9375 L 118.28125 105.375 C 116.78125 105.570312 115.476562 106.503906 114.800781 107.855469 C 114.125 109.210938 114.167969 110.8125 114.910156 112.128906 L 142.226562 160.429688 C 144.234375 163.980469 148.199219 165.957031 152.242188 165.425781 L 170.796875 162.992188 C 172.296875 162.792969 173.601562 161.863281 174.277344 160.507812 C 174.953125 159.15625 174.910156 157.554688 174.167969 156.234375 L 146.851562 107.9375 C 144.84375 104.386719 140.878906 102.40625 136.835938 102.9375 Z M 136.835938 102.9375 " clip-rule="nonzero"/></clipPath><clipPath id="55c5dcffce"><path d="M 142.511719 154.851562 L 189.761719 154.851562 L 189.761719 202.101562 L 142.511719 202.101562 Z M 142.511719 154.851562 " clip-rule="nonzero"/></clipPath><clipPath id="0dc0fef06d"><path d="M 183 192 L 204 192 L 204 210 L 183 210 Z M 183 192 " clip-rule="nonzero"/></clipPath><clipPath id="4cc4406635"><path d="M 184.078125 192.363281 L 203.65625 208.335938 L 202.707031 209.5 L 183.128906 193.523438 Z M 184.078125 192.363281 " clip-rule="nonzero"/></clipPath><clipPath id="837d8eeabb"><path d="M 184.078125 192.363281 L 203.835938 208.484375 L 202.886719 209.644531 L 183.128906 193.523438 Z M 184.078125 192.363281 " clip-rule="nonzero"/></clipPath><clipPath id="dd2bef35ba"><path d="M 184.078125 192.363281 L 203.835938 208.484375 L 202.886719 209.644531 L 183.128906 193.523438 Z M 184.078125 192.363281 " clip-rule="nonzero"/></clipPath><clipPath id="901d80b957"><path d="M 183 192 L 204 192 L 204 210 L 183 210 Z M 183 192 " clip-rule="nonzero"/></clipPath><clipPath id="0d00f7147b"><path d="M 184.078125 192.363281 L 203.835938 208.484375 L 202.886719 209.644531 L 183.128906 193.523438 Z M 184.078125 192.363281 " clip-rule="nonzero"/></clipPath><clipPath id="56309b158d"><path d="M 184.078125 192.363281 L 203.65625 208.335938 L 202.609375 209.613281 L 183.035156 193.640625 Z M 184.078125 192.363281 " clip-rule="nonzero"/></clipPath><clipPath id="3044e45eec"><path d="M 161 173 L 181 173 L 181 193 L 161 193 Z M 161 173 " clip-rule="nonzero"/></clipPath><clipPath id="f8fb1175b6"><path d="M 180.433594 173.207031 L 161.519531 192.121094 L 161.472656 192.070312 L 180.386719 173.15625 Z M 180.433594 173.207031 " clip-rule="nonzero"/></clipPath><clipPath id="118a937372"><path d="M 181.707031 173.207031 L 161.554688 193.359375 L 160.492188 192.296875 L 180.648438 172.144531 Z M 181.707031 173.207031 " clip-rule="nonzero"/></clipPath><clipPath id="6595a0c368"><path d="M 160 172 L 182 172 L 182 194 L 160 194 Z M 160 172 " clip-rule="nonzero"/></clipPath><clipPath id="908c36410f"><path d="M 181.707031 173.207031 L 161.554688 193.359375 L 160.492188 192.296875 L 180.648438 172.144531 Z M 181.707031 173.207031 " clip-rule="nonzero"/></clipPath><clipPath id="dd764cb768"><path d="M 181.707031 173.207031 L 161.523438 193.390625 L 160.203125 192.074219 L 180.390625 171.886719 Z M 181.707031 173.207031 " clip-rule="nonzero"/></clipPath><clipPath id="297c671db5"><path d="M 157 169 L 171 169 L 171 183 L 157 183 Z M 157 169 " clip-rule="nonzero"/></clipPath><clipPath id="16236ba99a"><path d="M 157.144531 181.792969 L 169.871094 169.0625 L 170.722656 169.914062 L 157.992188 182.640625 Z M 157.144531 181.792969 " clip-rule="nonzero"/></clipPath><clipPath id="b16dcbd8a8"><path d="M 157.144531 181.792969 L 169.871094 169.0625 L 170.933594 170.125 L 158.207031 182.851562 Z M 157.144531 181.792969 " clip-rule="nonzero"/></clipPath><clipPath id="f4a1a73967"><path d="M 157.144531 181.792969 L 169.871094 169.0625 L 170.933594 170.125 L 158.207031 182.851562 Z M 157.144531 181.792969 " clip-rule="nonzero"/></clipPath><clipPath id="95bb372365"><path d="M 157 169 L 171 169 L 171 183 L 157 183 Z M 157 169 " clip-rule="nonzero"/></clipPath><clipPath id="cad94a4bd9"><path d="M 157.144531 181.792969 L 169.871094 169.0625 L 170.933594 170.125 L 158.207031 182.851562 Z M 157.144531 181.792969 " clip-rule="nonzero"/></clipPath><clipPath id="071a3b4cd6"><path d="M 157.144531 181.792969 L 170.105469 168.832031 L 170.949219 169.675781 L 157.988281 182.636719 Z M 157.144531 181.792969 " clip-rule="nonzero"/></clipPath></defs><g clip-path="url(#1bea7e38ca)"><g clip-path="url(#abc73c25cd)"><g clip-path="url(#f59ddc46dc)"><path fill="#ffbd59" d="M 202.476562 83.542969 L 231.257812 134.230469 L 181.539062 162.457031 L 152.761719 111.769531 Z M 202.476562 83.542969 " fill-opacity="1" fill-rule="nonzero"/></g></g></g><g clip-path="url(#eeda454225)"><g clip-path="url(#649af88111)"><g clip-path="url(#6ad48ad8f4)"><path fill="#262626" d="M 111.589844 106.253906 L 169.164062 98.695312 L 177.488281 162.117188 L 119.914062 169.675781 Z M 111.589844 106.253906 " fill-opacity="1" fill-rule="nonzero"/></g></g></g><path fill="#ffffff" d="M 184.902344 159.746094 C 185.515625 160.359375 186.097656 161.003906 186.648438 161.675781 C 187.199219 162.347656 187.714844 163.042969 188.199219 163.765625 C 188.679688 164.488281 189.125 165.230469 189.535156 165.996094 C 189.945312 166.761719 190.316406 167.546875 190.648438 168.347656 C 190.980469 169.152344 191.273438 169.96875 191.523438 170.796875 C 191.777344 171.628906 191.988281 172.472656 192.15625 173.324219 C 192.328125 174.175781 192.453125 175.03125 192.539062 175.894531 C 192.625 176.761719 192.667969 177.625 192.667969 178.496094 C 192.667969 179.363281 192.625 180.230469 192.539062 181.09375 C 192.453125 181.957031 192.328125 182.816406 192.15625 183.667969 C 191.988281 184.519531 191.777344 185.359375 191.523438 186.191406 C 191.273438 187.023438 190.980469 187.839844 190.648438 188.640625 C 190.316406 189.445312 189.945312 190.226562 189.535156 190.992188 C 189.125 191.757812 188.679688 192.503906 188.199219 193.226562 C 187.714844 193.949219 187.199219 194.644531 186.648438 195.316406 C 186.097656 195.988281 185.515625 196.628906 184.902344 197.242188 C 184.289062 197.859375 183.644531 198.441406 182.972656 198.992188 C 182.300781 199.542969 181.605469 200.058594 180.882812 200.539062 C 180.160156 201.023438 179.417969 201.46875 178.652344 201.878906 C 177.886719 202.289062 177.101562 202.660156 176.300781 202.992188 C 175.496094 203.324219 174.679688 203.617188 173.851562 203.867188 C 173.019531 204.121094 172.175781 204.332031 171.324219 204.5 C 170.472656 204.667969 169.617188 204.796875 168.753906 204.882812 C 167.886719 204.96875 167.023438 205.007812 166.152344 205.007812 C 165.285156 205.007812 164.417969 204.96875 163.554688 204.882812 C 162.691406 204.796875 161.832031 204.667969 160.980469 204.5 C 160.128906 204.332031 159.289062 204.121094 158.457031 203.867188 C 157.625 203.617188 156.808594 203.324219 156.007812 202.992188 C 155.203125 202.660156 154.421875 202.289062 153.65625 201.878906 C 152.890625 201.46875 152.144531 201.023438 151.421875 200.542969 C 150.699219 200.058594 150.003906 199.542969 149.332031 198.992188 C 148.660156 198.441406 148.019531 197.859375 147.40625 197.242188 C 146.789062 196.628906 146.207031 195.988281 145.65625 195.316406 C 145.105469 194.644531 144.589844 193.949219 144.105469 193.226562 C 143.625 192.503906 143.179688 191.761719 142.769531 190.996094 C 142.359375 190.230469 141.988281 189.445312 141.65625 188.640625 C 141.324219 187.839844 141.03125 187.023438 140.78125 186.191406 C 140.527344 185.363281 140.316406 184.519531 140.148438 183.667969 C 139.980469 182.816406 139.851562 181.960938 139.765625 181.09375 C 139.679688 180.230469 139.640625 179.363281 139.640625 178.496094 C 139.640625 177.628906 139.679688 176.761719 139.765625 175.898438 C 139.851562 175.03125 139.980469 174.175781 140.148438 173.324219 C 140.316406 172.472656 140.527344 171.628906 140.78125 170.800781 C 141.03125 169.96875 141.324219 169.152344 141.65625 168.347656 C 141.988281 167.546875 142.359375 166.761719 142.769531 165.996094 C 143.179688 165.230469 143.625 164.488281 144.105469 163.765625 C 144.589844 163.042969 145.105469 162.347656 145.65625 161.675781 C 146.207031 161.003906 146.789062 160.363281 147.402344 159.746094 C 148.019531 159.132812 148.660156 158.550781 149.332031 158 C 150.003906 157.449219 150.699219 156.933594 151.421875 156.449219 C 152.144531 155.96875 152.886719 155.523438 153.652344 155.113281 C 154.417969 154.703125 155.203125 154.332031 156.003906 154 C 156.808594 153.667969 157.625 153.375 158.457031 153.125 C 159.285156 152.871094 160.128906 152.660156 160.980469 152.492188 C 161.832031 152.320312 162.6875 152.195312 163.554688 152.109375 C 164.417969 152.023438 165.285156 151.980469 166.152344 151.980469 C 167.019531 151.980469 167.886719 152.023438 168.75 152.109375 C 169.617188 152.195312 170.472656 152.320312 171.324219 152.492188 C 172.175781 152.660156 173.019531 152.871094 173.847656 153.125 C 174.679688 153.375 175.496094 153.667969 176.296875 154 C 177.101562 154.332031 177.886719 154.703125 178.652344 155.113281 C 179.417969 155.519531 180.160156 155.96875 180.882812 156.449219 C 181.605469 156.933594 182.300781 157.449219 182.972656 158 C 183.644531 158.550781 184.285156 159.132812 184.902344 159.746094 Z M 184.902344 159.746094 " fill-opacity="1" fill-rule="nonzero"/><g clip-path="url(#55c5dcffce)"><path fill="#111111" d="M 166.152344 202.136719 C 153.089844 202.136719 142.511719 191.484375 142.511719 178.496094 C 142.511719 165.503906 153.089844 154.851562 166.152344 154.851562 C 179.214844 154.851562 189.796875 165.433594 189.796875 178.496094 C 189.796875 191.554688 179.140625 202.136719 166.152344 202.136719 Z M 166.152344 156.3125 C 153.894531 156.3125 143.96875 166.234375 143.96875 178.496094 C 143.96875 190.753906 153.894531 200.679688 166.152344 200.679688 C 178.414062 200.679688 188.335938 190.753906 188.335938 178.496094 C 188.335938 166.234375 178.339844 156.3125 166.152344 156.3125 Z M 166.152344 156.3125 " fill-opacity="1" fill-rule="nonzero"/></g><g clip-path="url(#0dc0fef06d)"><g clip-path="url(#4cc4406635)"><g clip-path="url(#837d8eeabb)"><g clip-path="url(#dd2bef35ba)"><path fill="#000000" d="M 203.003906 207.800781 L 184.914062 193.042969 C 184.554688 192.75 184.054688 192.773438 183.792969 193.097656 C 183.53125 193.417969 183.609375 193.914062 183.964844 194.203125 L 202.054688 208.964844 C 202.410156 209.253906 202.914062 209.230469 203.175781 208.910156 C 203.4375 208.589844 203.359375 208.09375 203.003906 207.800781 Z M 203.003906 207.800781 " fill-opacity="1" fill-rule="nonzero"/></g></g></g></g><g clip-path="url(#901d80b957)"><g clip-path="url(#0d00f7147b)"><g clip-path="url(#56309b158d)"><path stroke-linecap="butt" transform="matrix(0.581111, 0.474142, -0.474142, 0.581111, 184.078615, 192.361804)" fill="none" stroke-linejoin="miter" d="M 0.000739042 0.00193882 L -0.0000398364 2.200682 L 33.685456 2.202326 L 33.690271 0.000289479 L 0.000739042 0.00193882 " stroke="#000000" stroke-width="84" stroke-opacity="1" stroke-miterlimit="4"/></g></g></g><g clip-path="url(#3044e45eec)"><g clip-path="url(#f8fb1175b6)"><g clip-path="url(#118a937372)"><path fill="#ffbd59" d="M 162.390625 192.523438 L 180.835938 174.074219 C 181.199219 173.710938 181.199219 173.121094 180.835938 172.757812 C 180.472656 172.394531 179.882812 172.394531 179.519531 172.757812 L 161.074219 191.203125 C 160.710938 191.566406 160.710938 192.15625 161.074219 192.523438 C 161.4375 192.886719 162.027344 192.886719 162.390625 192.523438 Z M 162.390625 192.523438 " fill-opacity="1" fill-rule="nonzero"/></g></g></g><g clip-path="url(#6595a0c368)"><g clip-path="url(#908c36410f)"><g clip-path="url(#dd764cb768)"><path stroke-linecap="butt" transform="matrix(-0.53033, 0.53033, -0.53033, -0.53033, 181.707194, 173.206042)" fill="none" stroke-linejoin="miter" d="M 0.00108606 -0.00077886 L -0.00259679 2.485144 L 38.063321 2.485144 L 38.059638 -0.00077886 L 0.00108606 -0.00077886 " stroke="#ffbd59" stroke-width="84" stroke-opacity="1" stroke-miterlimit="4"/></g></g></g><g clip-path="url(#297c671db5)"><g clip-path="url(#16236ba99a)"><g clip-path="url(#b16dcbd8a8)"><g clip-path="url(#f4a1a73967)"><path fill="#000000" d="M 169.320312 169.617188 L 157.699219 181.238281 C 157.46875 181.46875 157.519531 181.890625 157.8125 182.183594 C 158.105469 182.476562 158.53125 182.527344 158.757812 182.300781 L 170.378906 170.679688 C 170.609375 170.449219 170.558594 170.023438 170.265625 169.734375 C 169.972656 169.441406 169.546875 169.386719 169.320312 169.617188 Z M 169.320312 169.617188 " fill-opacity="1" fill-rule="nonzero"/></g></g></g></g><g clip-path="url(#95bb372365)"><g clip-path="url(#cad94a4bd9)"><g clip-path="url(#071a3b4cd6)"><path stroke-linecap="butt" transform="matrix(0.53033, -0.53033, 0.53033, 0.53033, 157.144506, 181.791667)" fill="none" stroke-linejoin="miter" d="M -0.00120342 0.00125069 L -0.00120342 1.592241 L 24.438176 1.592241 L 24.438176 0.00125069 L -0.00120342 0.00125069 " stroke="#000000" stroke-width="84" stroke-opacity="1" stroke-miterlimit="4"/></g></g></g></svg>