<svg xmlns="http://www.w3.org/2000/svg" viewBox="0 0 500 500"><g id="freepik--background-simple--inject-62"><path d="M401.11,63.17s-54.24-40.07-123.57-18S180,126.85,140.73,168.78c-20.58,22-51.34,31.11-75.92,48.41-78.61,55.33-64.95,171-3,212,53.66,35.53,120,36.47,205.78,4.53S414.86,382.19,467,299.57,468,117.87,401.11,63.17Z" style="fill:#FFBD02"></path><path d="M401.11,63.17s-54.24-40.07-123.57-18S180,126.85,140.73,168.78c-20.58,22-51.34,31.11-75.92,48.41-78.61,55.33-64.95,171-3,212,53.66,35.53,120,36.47,205.78,4.53S414.86,382.19,467,299.57,468,117.87,401.11,63.17Z" style="fill:#fff;opacity:0.8"></path></g><g id="freepik--Docs--inject-62"><g style="opacity:0.30000000000000004"><polygon points="76.61 143.44 29.03 143.44 29.03 84.09 69.51 84.09 76.61 90.01 76.61 143.44" style="fill:#fff;stroke:#000;stroke-linejoin:round"></polygon><polygon points="69.51 84.09 69.51 90.11 76.61 90.11 69.51 84.09" style="fill:#fff;stroke:#000;stroke-linejoin:round"></polygon><rect x="19.78" y="89.08" width="35.52" height="12.97"></rect><line x1="34.29" y1="105.76" x2="72.6" y2="105.76" style="fill:none;stroke:#000;stroke-miterlimit:10"></line><line x1="34.29" y1="112.87" x2="72.6" y2="112.87" style="fill:none;stroke:#000;stroke-miterlimit:10"></line><line x1="34.29" y1="119.97" x2="72.6" y2="119.97" style="fill:none;stroke:#000;stroke-miterlimit:10"></line><line x1="34.29" y1="127.08" x2="72.6" y2="127.08" style="fill:none;stroke:#000;stroke-miterlimit:10"></line><line x1="34.29" y1="134.18" x2="72.6" y2="134.18" style="fill:none;stroke:#000;stroke-miterlimit:10"></line><path d="M30.62,100.2V91.79H28.9v-1h4.47v1H31.65v8.41Z" style="fill:#fff"></path><path d="M36.41,96.17l-1.57,4h-1l1.89-4.82L34,90.84h1.09l1.44,3.75L38,90.84h1l-1.75,4.54,1.87,4.82H38Z" style="fill:#fff"></path><path d="M41.25,100.2V91.79H39.52v-1H44v1H42.27v8.41Z" style="fill:#fff"></path></g><g style="opacity:0.30000000000000004"><polygon points="463.85 274 416.27 274 416.27 214.64 456.74 214.64 463.85 220.56 463.85 274" style="fill:#fff;stroke:#000;stroke-linejoin:round"></polygon><polygon points="456.74 214.64 456.74 220.66 463.85 220.66 456.74 214.64" style="fill:#fff;stroke:#000;stroke-linejoin:round"></polygon><rect x="407.01" y="219.64" width="35.52" height="12.97"></rect><line x1="421.53" y1="236.32" x2="459.83" y2="236.32" style="fill:none;stroke:#000;stroke-miterlimit:10"></line><line x1="421.53" y1="243.42" x2="459.83" y2="243.42" style="fill:none;stroke:#000;stroke-miterlimit:10"></line><line x1="421.53" y1="250.52" x2="459.83" y2="250.52" style="fill:none;stroke:#000;stroke-miterlimit:10"></line><line x1="421.53" y1="257.63" x2="459.83" y2="257.63" style="fill:none;stroke:#000;stroke-miterlimit:10"></line><line x1="421.53" y1="264.73" x2="459.83" y2="264.73" style="fill:none;stroke:#000;stroke-miterlimit:10"></line><path d="M417.86,230.76v-8.41h-1.73v-.95h4.48v.95h-1.72v8.41Z" style="fill:#fff"></path><path d="M423.65,226.72l-1.57,4h-1l1.89-4.83-1.77-4.53h1.08l1.45,3.74,1.46-3.74h1l-1.75,4.53,1.87,4.83H425.2Z" style="fill:#fff"></path><path d="M428.48,230.76v-8.41h-1.72v-.95h4.48v.95h-1.73v8.41Z" style="fill:#fff"></path></g><g style="opacity:0.30000000000000004"><polygon points="308.31 375.39 260.73 375.39 260.73 316.03 301.21 316.03 308.31 321.95 308.31 375.39" style="fill:#fff;stroke:#000;stroke-linejoin:round"></polygon><polygon points="301.21 316.03 301.21 322.06 308.31 322.06 301.21 316.03" style="fill:#fff;stroke:#000;stroke-linejoin:round"></polygon><rect x="251.48" y="321.03" width="35.52" height="12.97"></rect><line x1="266" y1="337.71" x2="304.3" y2="337.71" style="fill:none;stroke:#000;stroke-miterlimit:10"></line><line x1="266" y1="344.81" x2="304.3" y2="344.81" style="fill:none;stroke:#000;stroke-miterlimit:10"></line><line x1="266" y1="351.91" x2="304.3" y2="351.91" style="fill:none;stroke:#000;stroke-miterlimit:10"></line><line x1="266" y1="359.02" x2="304.3" y2="359.02" style="fill:none;stroke:#000;stroke-miterlimit:10"></line><line x1="266" y1="366.12" x2="304.3" y2="366.12" style="fill:none;stroke:#000;stroke-miterlimit:10"></line><path d="M262.32,332.15v-8.41H260.6v-.95h4.48v.95h-1.73v8.41Z" style="fill:#fff"></path><path d="M268.11,328.11l-1.57,4h-1l1.88-4.83-1.76-4.53h1.08l1.44,3.74,1.46-3.74h1l-1.76,4.53,1.88,4.83h-1.1Z" style="fill:#fff"></path><path d="M273,332.15v-8.41h-1.73v-.95h4.48v.95H274v8.41Z" style="fill:#fff"></path></g><g style="opacity:0.30000000000000004"><polygon points="96.32 287.45 32.24 287.45 32.24 207.51 86.76 207.51 96.32 215.48 96.32 287.45" style="fill:#fff;stroke:#000;stroke-linejoin:round"></polygon><polygon points="86.76 207.51 86.76 215.62 96.32 215.62 86.76 207.51" style="fill:#fff;stroke:#000;stroke-linejoin:round"></polygon><rect x="19.78" y="214.24" width="47.84" height="17.47"></rect><line x1="39.33" y1="236.7" x2="90.92" y2="236.7" style="fill:none;stroke:#000;stroke-miterlimit:10"></line><line x1="39.33" y1="246.27" x2="90.92" y2="246.27" style="fill:none;stroke:#000;stroke-miterlimit:10"></line><line x1="39.33" y1="255.83" x2="90.92" y2="255.83" style="fill:none;stroke:#000;stroke-miterlimit:10"></line><line x1="39.33" y1="265.4" x2="90.92" y2="265.4" style="fill:none;stroke:#000;stroke-miterlimit:10"></line><line x1="39.33" y1="274.97" x2="90.92" y2="274.97" style="fill:none;stroke:#000;stroke-miterlimit:10"></line><path d="M35.32,216.61c2,0,2.83,1.17,2.83,3.08v1.51c0,2-.94,3-2.94,3H34v5h-1.4v-12.6ZM35.21,223c1,0,1.55-.49,1.55-1.69v-1.68c0-1.15-.41-1.73-1.44-1.73H34V223Z" style="fill:#fff"></path><path d="M42.25,216.61c2,0,2.86,1.18,2.86,3.13v6.35c0,1.93-.9,3.12-2.86,3.12h-3v-12.6Zm0,11.32c1,0,1.5-.63,1.5-1.78v-6.48c0-1.16-.49-1.79-1.51-1.79H40.7v10.05Z" style="fill:#fff"></path><path d="M50.73,222.48v1.27h-2.9v5.46h-1.4v-12.6h5v1.27h-3.6v4.6Z" style="fill:#fff"></path></g><g style="opacity:0.30000000000000004"><polygon points="70 396.8 38.42 396.8 38.42 357.41 65.28 357.41 70 361.34 70 396.8" style="fill:#fff;stroke:#000;stroke-linejoin:round"></polygon><polygon points="65.28 357.41 65.28 361.41 70 361.41 65.28 357.41" style="fill:#fff;stroke:#000;stroke-linejoin:round"></polygon><rect x="32.28" y="360.72" width="23.57" height="8.61"></rect><line x1="41.92" y1="371.79" x2="67.34" y2="371.79" style="fill:none;stroke:#000;stroke-miterlimit:10"></line><line x1="41.92" y1="376.51" x2="67.34" y2="376.51" style="fill:none;stroke:#000;stroke-miterlimit:10"></line><line x1="41.92" y1="381.22" x2="67.34" y2="381.22" style="fill:none;stroke:#000;stroke-miterlimit:10"></line><line x1="41.92" y1="385.94" x2="67.34" y2="385.94" style="fill:none;stroke:#000;stroke-miterlimit:10"></line><line x1="41.92" y1="390.65" x2="67.34" y2="390.65" style="fill:none;stroke:#000;stroke-miterlimit:10"></line><path d="M39.94,361.89c1,0,1.39.58,1.39,1.52v.74c0,1-.46,1.5-1.45,1.5h-.61v2.45h-.69v-6.21ZM39.88,365c.52,0,.77-.24.77-.83v-.83c0-.56-.21-.85-.71-.85h-.67V365Z" style="fill:#fff"></path><path d="M43.35,361.89c1,0,1.41.59,1.41,1.55v3.13c0,.95-.44,1.53-1.41,1.53H41.9v-6.21Zm0,5.58c.5,0,.74-.31.74-.88V363.4c0-.57-.24-.88-.75-.88h-.74v5Z" style="fill:#fff"></path><path d="M47.53,364.78v.63H46.1v2.69h-.69v-6.21h2.47v.63H46.1v2.26Z" style="fill:#fff"></path></g><g style="opacity:0.30000000000000004"><polygon points="471.47 104.39 439.89 104.39 439.89 64.99 466.75 64.99 471.47 68.92 471.47 104.39" style="fill:#fff;stroke:#000;stroke-linejoin:round"></polygon><polygon points="466.75 64.99 466.75 68.99 471.47 68.99 466.75 64.99" style="fill:#fff;stroke:#000;stroke-linejoin:round"></polygon><rect x="433.75" y="68.31" width="23.57" height="8.61"></rect><line x1="443.38" y1="79.38" x2="468.8" y2="79.38" style="fill:none;stroke:#000;stroke-miterlimit:10"></line><line x1="443.38" y1="84.09" x2="468.8" y2="84.09" style="fill:none;stroke:#000;stroke-miterlimit:10"></line><line x1="443.38" y1="88.81" x2="468.8" y2="88.81" style="fill:none;stroke:#000;stroke-miterlimit:10"></line><line x1="443.38" y1="93.52" x2="468.8" y2="93.52" style="fill:none;stroke:#000;stroke-miterlimit:10"></line><line x1="443.38" y1="98.24" x2="468.8" y2="98.24" style="fill:none;stroke:#000;stroke-miterlimit:10"></line><path d="M441.41,69.48c1,0,1.39.57,1.39,1.52v.74c0,1-.46,1.5-1.45,1.5h-.61v2.45h-.69V69.48Zm-.06,3.14c.52,0,.77-.24.77-.84V71c0-.57-.21-.85-.71-.85h-.67v2.51Z" style="fill:#fff"></path><path d="M444.82,69.48c1,0,1.41.58,1.41,1.54v3.13c0,.95-.44,1.54-1.41,1.54h-1.45V69.48Zm0,5.58c.5,0,.74-.31.74-.88V71c0-.57-.24-.88-.75-.88h-.74v5Z" style="fill:#fff"></path><path d="M449,72.37V73h-1.43v2.69h-.69V69.48h2.47v.63h-1.78v2.26Z" style="fill:#fff"></path></g></g></svg>