<svg xmlns="http://www.w3.org/2000/svg" xmlns:xlink="http://www.w3.org/1999/xlink" width="500" zoomAndPan="magnify" viewBox="0 0 375 374.999991" height="500" preserveAspectRatio="xMidYMid meet" version="1.0"><defs><clipPath id="1288ca696d"><path d="M 203 222 L 224 222 L 224 239 L 203 239 Z M 203 222 " clip-rule="nonzero"/></clipPath><clipPath id="ed880ffceb"><path d="M 204.199219 221.886719 L 223.78125 237.859375 L 222.832031 239.023438 L 203.253906 223.046875 Z M 204.199219 221.886719 " clip-rule="nonzero"/></clipPath><clipPath id="7085999c96"><path d="M 204.199219 221.886719 L 223.957031 238.007812 L 223.011719 239.167969 L 203.253906 223.046875 Z M 204.199219 221.886719 " clip-rule="nonzero"/></clipPath><clipPath id="7a120277e9"><path d="M 204.199219 221.886719 L 223.957031 238.007812 L 223.011719 239.167969 L 203.253906 223.046875 Z M 204.199219 221.886719 " clip-rule="nonzero"/></clipPath><clipPath id="be0fe3d3e1"><path d="M 203 221 L 224 221 L 224 240 L 203 240 Z M 203 221 " clip-rule="nonzero"/></clipPath><clipPath id="ca533c56ea"><path d="M 204.199219 221.886719 L 223.957031 238.007812 L 223.011719 239.167969 L 203.253906 223.046875 Z M 204.199219 221.886719 " clip-rule="nonzero"/></clipPath><clipPath id="22d1ed1c91"><path d="M 204.199219 221.886719 L 223.777344 237.859375 L 222.730469 239.136719 L 203.15625 223.164062 Z M 204.199219 221.886719 " clip-rule="nonzero"/></clipPath><clipPath id="10f797ddb6"><path d="M 182 116 L 234 116 L 234 189 L 182 189 Z M 182 116 " clip-rule="nonzero"/></clipPath><clipPath id="19a9c3cd0d"><path d="M 219.542969 114.492188 L 246.335938 161.683594 L 196.621094 189.910156 L 169.824219 142.71875 Z M 219.542969 114.492188 " clip-rule="nonzero"/></clipPath><clipPath id="28f5d63884"><path d="M 232.589844 137.472656 L 221.882812 118.613281 C 221.132812 117.296875 219.78125 116.4375 218.273438 116.320312 C 216.765625 116.207031 215.296875 116.847656 214.355469 118.03125 L 184.4375 155.777344 C 181.902344 158.976562 181.5625 163.390625 183.578125 166.9375 L 194.285156 185.796875 C 195.03125 187.113281 196.382812 187.972656 197.894531 188.089844 C 199.402344 188.203125 200.871094 187.5625 201.8125 186.378906 L 231.730469 148.632812 C 234.261719 145.433594 234.605469 141.019531 232.589844 137.472656 Z M 232.589844 137.472656 " clip-rule="nonzero"/></clipPath><clipPath id="3c7e7736bd"><path d="M 130 132 L 191 132 L 191 195 L 130 195 Z M 130 132 " clip-rule="nonzero"/></clipPath><clipPath id="8f89ae2967"><path d="M 129.683594 135.1875 L 183.210938 128.160156 L 191.539062 191.582031 L 138.011719 198.609375 Z M 129.683594 135.1875 " clip-rule="nonzero"/></clipPath><clipPath id="538ab6b743"><path d="M 152.90625 132.140625 L 134.355469 134.574219 C 132.851562 134.773438 131.546875 135.703125 130.875 137.058594 C 130.199219 138.410156 130.238281 140.011719 130.984375 141.332031 L 158.300781 189.628906 C 160.308594 193.179688 164.269531 195.15625 168.316406 194.628906 L 186.871094 192.191406 C 188.371094 191.992188 189.675781 191.0625 190.351562 189.710938 C 191.027344 188.355469 190.984375 186.753906 190.238281 185.4375 L 162.921875 137.136719 C 160.914062 133.585938 156.953125 131.609375 152.90625 132.140625 Z M 152.90625 132.140625 " clip-rule="nonzero"/></clipPath><clipPath id="4eb96819c0"><path d="M 158.582031 184.054688 L 205.832031 184.054688 L 205.832031 231.304688 L 158.582031 231.304688 Z M 158.582031 184.054688 " clip-rule="nonzero"/></clipPath><clipPath id="9c635468cc"><path d="M 177 202 L 197 202 L 197 222 L 177 222 Z M 177 202 " clip-rule="nonzero"/></clipPath><clipPath id="e4107ab61a"><path d="M 196.507812 202.40625 L 177.59375 221.320312 L 177.546875 221.269531 L 196.457031 202.359375 Z M 196.507812 202.40625 " clip-rule="nonzero"/></clipPath><clipPath id="b50795f752"><path d="M 197.78125 202.40625 L 177.628906 222.558594 L 176.566406 221.5 L 196.71875 201.347656 Z M 197.78125 202.40625 " clip-rule="nonzero"/></clipPath><clipPath id="69e37d668c"><path d="M 176 201 L 198 201 L 198 223 L 176 223 Z M 176 201 " clip-rule="nonzero"/></clipPath><clipPath id="2bf4b576e4"><path d="M 197.78125 202.40625 L 177.628906 222.558594 L 176.566406 221.5 L 196.71875 201.347656 Z M 197.78125 202.40625 " clip-rule="nonzero"/></clipPath><clipPath id="ec512b38cb"><path d="M 197.78125 202.40625 L 177.59375 222.59375 L 176.277344 221.273438 L 196.460938 201.089844 Z M 197.78125 202.40625 " clip-rule="nonzero"/></clipPath><clipPath id="0307ef0e6b"><path d="M 174 199 L 188 199 L 188 213 L 174 213 Z M 174 199 " clip-rule="nonzero"/></clipPath><clipPath id="64c0b14a75"><path d="M 173.6875 211.984375 L 186.417969 199.257812 L 187.265625 200.105469 L 174.539062 212.835938 Z M 173.6875 211.984375 " clip-rule="nonzero"/></clipPath><clipPath id="d0f38af4f6"><path d="M 173.6875 211.984375 L 186.417969 199.257812 L 187.476562 200.320312 L 174.75 213.046875 Z M 173.6875 211.984375 " clip-rule="nonzero"/></clipPath><clipPath id="d08f94631d"><path d="M 173.6875 211.984375 L 186.417969 199.257812 L 187.476562 200.320312 L 174.75 213.046875 Z M 173.6875 211.984375 " clip-rule="nonzero"/></clipPath><clipPath id="1517d75755"><path d="M 173 199 L 188 199 L 188 213 L 173 213 Z M 173 199 " clip-rule="nonzero"/></clipPath><clipPath id="5d2ce1d224"><path d="M 173.6875 211.984375 L 186.417969 199.257812 L 187.476562 200.320312 L 174.75 213.046875 Z M 173.6875 211.984375 " clip-rule="nonzero"/></clipPath><clipPath id="0eeb06d357"><path d="M 173.6875 211.984375 L 186.648438 199.027344 L 187.492188 199.871094 L 174.535156 212.832031 Z M 173.6875 211.984375 " clip-rule="nonzero"/></clipPath></defs><g clip-path="url(#1288ca696d)"><g clip-path="url(#ed880ffceb)"><g clip-path="url(#7085999c96)"><g clip-path="url(#7a120277e9)"><path fill="#000000" d="M 223.125 237.324219 L 205.035156 222.566406 C 204.679688 222.273438 204.175781 222.300781 203.914062 222.621094 C 203.652344 222.941406 203.730469 223.4375 204.085938 223.726562 L 222.175781 238.488281 C 222.53125 238.777344 223.035156 238.753906 223.296875 238.433594 C 223.558594 238.113281 223.480469 237.617188 223.125 237.324219 Z M 223.125 237.324219 " fill-opacity="1" fill-rule="nonzero"/></g></g></g></g><g clip-path="url(#be0fe3d3e1)"><g clip-path="url(#ca533c56ea)"><g clip-path="url(#22d1ed1c91)"><path stroke-linecap="butt" transform="matrix(0.581111, 0.474142, -0.474142, 0.581111, 204.200749, 221.885551)" fill="none" stroke-linejoin="miter" d="M -0.000596266 0.00249597 L -0.00137514 2.201239 L 33.684121 2.202883 L 33.688935 0.000846626 L -0.000596266 0.00249597 " stroke="#000000" stroke-width="84" stroke-opacity="1" stroke-miterlimit="4"/></g></g></g><g clip-path="url(#10f797ddb6)"><g clip-path="url(#19a9c3cd0d)"><g clip-path="url(#28f5d63884)"><path fill="#ffbd59" d="M 218.546875 112.742188 L 247.328125 163.429688 L 197.613281 191.660156 L 168.832031 140.972656 Z M 218.546875 112.742188 " fill-opacity="1" fill-rule="nonzero"/></g></g></g><g clip-path="url(#3c7e7736bd)"><g clip-path="url(#8f89ae2967)"><g clip-path="url(#538ab6b743)"><path fill="#262626" d="M 127.660156 135.453125 L 185.234375 127.894531 L 193.5625 191.316406 L 135.988281 198.875 Z M 127.660156 135.453125 " fill-opacity="1" fill-rule="nonzero"/></g></g></g><path fill="#ffffff" d="M 200.972656 188.949219 C 201.585938 189.5625 202.167969 190.203125 202.722656 190.875 C 203.273438 191.546875 203.789062 192.242188 204.269531 192.964844 C 204.753906 193.6875 205.199219 194.429688 205.609375 195.199219 C 206.019531 195.964844 206.390625 196.746094 206.722656 197.550781 C 207.054688 198.351562 207.34375 199.167969 207.597656 200 C 207.851562 200.832031 208.058594 201.671875 208.230469 202.523438 C 208.398438 203.375 208.527344 204.234375 208.613281 205.097656 C 208.695312 205.960938 208.738281 206.828125 208.738281 207.695312 C 208.738281 208.5625 208.695312 209.429688 208.613281 210.292969 C 208.527344 211.160156 208.398438 212.015625 208.230469 212.867188 C 208.0625 213.71875 207.851562 214.5625 207.597656 215.390625 C 207.347656 216.222656 207.054688 217.039062 206.722656 217.84375 C 206.390625 218.644531 206.019531 219.429688 205.609375 220.195312 C 205.199219 220.960938 204.753906 221.703125 204.269531 222.425781 C 203.789062 223.148438 203.273438 223.84375 202.722656 224.515625 C 202.171875 225.1875 201.589844 225.832031 200.972656 226.445312 C 200.359375 227.058594 199.71875 227.640625 199.046875 228.191406 C 198.375 228.742188 197.679688 229.257812 196.957031 229.742188 C 196.234375 230.222656 195.492188 230.671875 194.722656 231.078125 C 193.957031 231.488281 193.175781 231.859375 192.371094 232.191406 C 191.570312 232.523438 190.753906 232.816406 189.921875 233.070312 C 189.089844 233.320312 188.25 233.53125 187.398438 233.699219 C 186.546875 233.871094 185.6875 233.996094 184.824219 234.082031 C 183.960938 234.167969 183.09375 234.210938 182.226562 234.210938 C 181.359375 234.210938 180.492188 234.167969 179.628906 234.082031 C 178.761719 233.996094 177.90625 233.871094 177.054688 233.699219 C 176.203125 233.53125 175.359375 233.320312 174.527344 233.070312 C 173.699219 232.816406 172.882812 232.523438 172.078125 232.191406 C 171.277344 231.859375 170.492188 231.488281 169.726562 231.078125 C 168.960938 230.671875 168.21875 230.222656 167.496094 229.742188 C 166.773438 229.257812 166.078125 228.742188 165.40625 228.191406 C 164.734375 227.640625 164.089844 227.058594 163.476562 226.445312 C 162.863281 225.832031 162.28125 225.1875 161.730469 224.515625 C 161.179688 223.847656 160.664062 223.148438 160.179688 222.425781 C 159.699219 221.707031 159.25 220.960938 158.84375 220.195312 C 158.433594 219.429688 158.0625 218.644531 157.730469 217.84375 C 157.398438 217.039062 157.105469 216.222656 156.851562 215.394531 C 156.601562 214.5625 156.390625 213.722656 156.222656 212.871094 C 156.050781 212.019531 155.925781 211.160156 155.839844 210.296875 C 155.753906 209.429688 155.710938 208.566406 155.710938 207.695312 C 155.710938 206.828125 155.753906 205.960938 155.839844 205.097656 C 155.925781 204.234375 156.050781 203.375 156.222656 202.523438 C 156.390625 201.671875 156.601562 200.832031 156.851562 200 C 157.105469 199.167969 157.398438 198.351562 157.730469 197.550781 C 158.0625 196.746094 158.433594 195.964844 158.84375 195.199219 C 159.25 194.433594 159.695312 193.6875 160.179688 192.964844 C 160.660156 192.246094 161.179688 191.546875 161.730469 190.875 C 162.28125 190.207031 162.863281 189.5625 163.476562 188.949219 C 164.089844 188.335938 164.734375 187.75 165.40625 187.199219 C 166.074219 186.648438 166.773438 186.132812 167.496094 185.652344 C 168.214844 185.167969 168.960938 184.722656 169.726562 184.3125 C 170.492188 183.902344 171.277344 183.53125 172.078125 183.199219 C 172.878906 182.867188 173.699219 182.578125 174.527344 182.324219 C 175.359375 182.070312 176.199219 181.859375 177.050781 181.691406 C 177.902344 181.523438 178.761719 181.394531 179.625 181.308594 C 180.492188 181.226562 181.355469 181.183594 182.226562 181.183594 C 183.09375 181.183594 183.960938 181.226562 184.824219 181.308594 C 185.6875 181.394531 186.546875 181.523438 187.398438 181.691406 C 188.25 181.859375 189.089844 182.070312 189.921875 182.324219 C 190.753906 182.574219 191.570312 182.867188 192.371094 183.199219 C 193.171875 183.53125 193.957031 183.902344 194.722656 184.3125 C 195.488281 184.722656 196.234375 185.167969 196.957031 185.652344 C 197.675781 186.132812 198.375 186.648438 199.046875 187.199219 C 199.714844 187.75 200.359375 188.332031 200.972656 188.949219 Z M 200.972656 188.949219 " fill-opacity="1" fill-rule="nonzero"/><g clip-path="url(#4eb96819c0)"><path fill="#111111" d="M 182.226562 231.339844 C 169.164062 231.339844 158.582031 220.683594 158.582031 207.695312 C 158.582031 194.707031 169.164062 184.054688 182.226562 184.054688 C 195.289062 184.054688 205.867188 194.632812 205.867188 207.695312 C 205.867188 220.757812 195.214844 231.339844 182.226562 231.339844 Z M 182.226562 185.511719 C 169.96875 185.511719 160.042969 195.4375 160.042969 207.695312 C 160.042969 219.953125 169.96875 229.878906 182.226562 229.878906 C 194.484375 229.878906 204.410156 219.953125 204.410156 207.695312 C 204.410156 195.4375 194.414062 185.511719 182.226562 185.511719 Z M 182.226562 185.511719 " fill-opacity="1" fill-rule="nonzero"/></g><g clip-path="url(#9c635468cc)"><g clip-path="url(#e4107ab61a)"><g clip-path="url(#b50795f752)"><path fill="#ffbd59" d="M 178.464844 221.722656 L 196.910156 203.277344 C 197.273438 202.914062 197.273438 202.324219 196.910156 201.960938 C 196.546875 201.59375 195.957031 201.59375 195.59375 201.960938 L 177.148438 220.40625 C 176.78125 220.769531 176.78125 221.359375 177.148438 221.722656 C 177.511719 222.085938 178.101562 222.085938 178.464844 221.722656 Z M 178.464844 221.722656 " fill-opacity="1" fill-rule="nonzero"/></g></g></g><g clip-path="url(#69e37d668c)"><g clip-path="url(#2bf4b576e4)"><g clip-path="url(#ec512b38cb)"><path stroke-linecap="butt" transform="matrix(-0.53033, 0.53033, -0.53033, -0.53033, 197.779868, 202.406735)" fill="none" stroke-linejoin="miter" d="M -0.00175966 -0.00084568 L 0.00192319 2.485077 L 38.060475 2.485077 L 38.064158 -0.00084568 L -0.00175966 -0.00084568 " stroke="#ffbd59" stroke-width="84" stroke-opacity="1" stroke-miterlimit="4"/></g></g></g><g clip-path="url(#0307ef0e6b)"><g clip-path="url(#64c0b14a75)"><g clip-path="url(#d0f38af4f6)"><g clip-path="url(#d08f94631d)"><path fill="#000000" d="M 185.863281 199.8125 L 174.242188 211.433594 C 174.011719 211.660156 174.066406 212.085938 174.355469 212.378906 C 174.648438 212.671875 175.074219 212.722656 175.304688 212.492188 L 186.925781 200.871094 C 187.152344 200.644531 187.101562 200.21875 186.808594 199.925781 C 186.515625 199.632812 186.09375 199.582031 185.863281 199.8125 Z M 185.863281 199.8125 " fill-opacity="1" fill-rule="nonzero"/></g></g></g></g><g clip-path="url(#1517d75755)"><g clip-path="url(#5d2ce1d224)"><g clip-path="url(#0eeb06d357)"><path stroke-linecap="butt" transform="matrix(0.53033, -0.53033, 0.53033, 0.53033, 173.688744, 211.986137)" fill="none" stroke-linejoin="miter" d="M 0.000488361 -0.00283463 L 0.000488361 1.595521 L 24.436185 1.591839 L 24.436185 0.000848223 L 0.000488361 -0.00283463 " stroke="#000000" stroke-width="84" stroke-opacity="1" stroke-miterlimit="4"/></g></g></g></svg>