<svg xmlns="http://www.w3.org/2000/svg" xmlns:xlink="http://www.w3.org/1999/xlink" width="490" zoomAndPan="magnify" viewBox="430 150 180 245" height="490" preserveAspectRatio="xMidYMid meet" version="1.0"><defs><clipPath id="71d116a8f1"><path d="M 539 361 L 574 361 L 574 390 L 539 390 Z M 539 361 " clip-rule="nonzero"/></clipPath><clipPath id="eaf5e15286"><path d="M 540.734375 361.019531 L 574.421875 388.503906 L 572.789062 390.503906 L 539.105469 363.019531 Z M 540.734375 361.019531 " clip-rule="nonzero"/></clipPath><clipPath id="625ed2af21"><path d="M 540.734375 361.019531 L 574.730469 388.753906 L 573.097656 390.753906 L 539.105469 363.019531 Z M 540.734375 361.019531 " clip-rule="nonzero"/></clipPath><clipPath id="45ae184d14"><path d="M 540.734375 361.019531 L 574.730469 388.753906 L 573.097656 390.753906 L 539.105469 363.019531 Z M 540.734375 361.019531 " clip-rule="nonzero"/></clipPath><clipPath id="4168062d10"><path d="M 539 361 L 575 361 L 575 391 L 539 391 Z M 539 361 " clip-rule="nonzero"/></clipPath><clipPath id="e51d0a3d24"><path d="M 540.734375 361.019531 L 574.730469 388.753906 L 573.097656 390.753906 L 539.105469 363.019531 Z M 540.734375 361.019531 " clip-rule="nonzero"/></clipPath><clipPath id="a9c698f66d"><path d="M 540.734375 361.019531 L 574.417969 388.5 L 572.621094 390.703125 L 538.9375 363.222656 Z M 540.734375 361.019531 " clip-rule="nonzero"/></clipPath><clipPath id="6e9e9beff8"><path d="M 501 176 L 594 176 L 594 306 L 501 306 Z M 501 176 " clip-rule="nonzero"/></clipPath><clipPath id="d9a0c3c1e5"><path d="M 566.371094 174.898438 L 613.992188 258.769531 L 528.453125 307.339844 L 480.832031 223.46875 Z M 566.371094 174.898438 " clip-rule="nonzero"/></clipPath><clipPath id="8ff6b56b33"><path d="M 591.984375 220.011719 L 568.753906 179.097656 C 568.007812 177.78125 566.65625 176.921875 565.144531 176.808594 C 563.636719 176.691406 562.171875 177.332031 561.230469 178.515625 L 503.707031 251.089844 C 501.171875 254.285156 500.832031 258.699219 502.847656 262.246094 L 526.078125 303.160156 C 526.824219 304.472656 528.175781 305.332031 529.683594 305.449219 C 531.191406 305.5625 532.660156 304.921875 533.597656 303.738281 L 591.125 231.164062 C 593.65625 227.96875 593.996094 223.554688 591.984375 220.011719 Z M 591.984375 220.011719 " clip-rule="nonzero"/></clipPath><clipPath id="8c948b55d4"><path d="M 411 205 L 520 205 L 520 315 L 411 315 Z M 411 205 " clip-rule="nonzero"/></clipPath><clipPath id="e3371f5540"><path d="M 410.976562 212.054688 L 506.167969 199.554688 L 520.496094 308.675781 L 425.304688 321.175781 Z M 410.976562 212.054688 " clip-rule="nonzero"/></clipPath><clipPath id="94d92d4e32"><path d="M 457.308594 205.96875 L 415.730469 211.429688 C 414.230469 211.625 412.929688 212.554688 412.253906 213.910156 C 411.578125 215.261719 411.621094 216.863281 412.363281 218.179688 L 464.15625 309.757812 C 466.164062 313.304688 470.125 315.28125 474.167969 314.75 L 515.742188 309.292969 C 517.242188 309.097656 518.542969 308.167969 519.21875 306.8125 C 519.894531 305.460938 519.855469 303.859375 519.109375 302.542969 L 467.316406 210.964844 C 465.308594 207.414062 461.351562 205.4375 457.308594 205.96875 Z M 457.308594 205.96875 " clip-rule="nonzero"/></clipPath><clipPath id="d7f34de49e"><path d="M 462.246094 295.925781 L 543.542969 295.925781 L 543.542969 377.222656 L 462.246094 377.222656 Z M 462.246094 295.925781 " clip-rule="nonzero"/></clipPath><clipPath id="1e3b7f6b86"><path d="M 494 327 L 528 327 L 528 361 L 494 361 Z M 494 327 " clip-rule="nonzero"/></clipPath><clipPath id="94ff2bffc3"><path d="M 527.496094 327.503906 L 494.957031 360.046875 L 494.871094 359.960938 L 527.414062 327.421875 Z M 527.496094 327.503906 " clip-rule="nonzero"/></clipPath><clipPath id="053d0ee8a7"><path d="M 529.6875 327.503906 L 495.011719 362.175781 L 493.1875 360.351562 L 527.863281 325.679688 Z M 529.6875 327.503906 " clip-rule="nonzero"/></clipPath><clipPath id="b2ab6299f5"><path d="M 493 325 L 530 325 L 530 363 L 493 363 Z M 493 325 " clip-rule="nonzero"/></clipPath><clipPath id="4f77daa807"><path d="M 529.6875 327.503906 L 495.011719 362.175781 L 493.1875 360.351562 L 527.863281 325.679688 Z M 529.6875 327.503906 " clip-rule="nonzero"/></clipPath><clipPath id="69b0aeca9b"><path d="M 529.6875 327.503906 L 494.957031 362.234375 L 492.6875 359.96875 L 527.421875 325.238281 Z M 529.6875 327.503906 " clip-rule="nonzero"/></clipPath><clipPath id="ddf7b32d12"><path d="M 488 322 L 512 322 L 512 346 L 488 346 Z M 488 322 " clip-rule="nonzero"/></clipPath><clipPath id="73d7eb4f60"><path d="M 488.238281 343.984375 L 510.136719 322.085938 L 511.597656 323.546875 L 489.695312 345.445312 Z M 488.238281 343.984375 " clip-rule="nonzero"/></clipPath><clipPath id="99c7cabd8c"><path d="M 488.238281 343.984375 L 510.136719 322.085938 L 511.960938 323.910156 L 490.0625 345.8125 Z M 488.238281 343.984375 " clip-rule="nonzero"/></clipPath><clipPath id="87bdf18847"><path d="M 488.238281 343.984375 L 510.136719 322.085938 L 511.960938 323.910156 L 490.0625 345.8125 Z M 488.238281 343.984375 " clip-rule="nonzero"/></clipPath><clipPath id="97765a782a"><path d="M 488 322 L 512 322 L 512 346 L 488 346 Z M 488 322 " clip-rule="nonzero"/></clipPath><clipPath id="8df3aff39a"><path d="M 488.238281 343.984375 L 510.136719 322.085938 L 511.960938 323.910156 L 490.0625 345.8125 Z M 488.238281 343.984375 " clip-rule="nonzero"/></clipPath><clipPath id="4c01f23f08"><path d="M 488.238281 343.984375 L 510.535156 321.6875 L 511.988281 323.140625 L 489.691406 345.441406 Z M 488.238281 343.984375 " clip-rule="nonzero"/></clipPath></defs><g clip-path="url(#71d116a8f1)"><g clip-path="url(#eaf5e15286)"><g clip-path="url(#625ed2af21)"><g clip-path="url(#45ae184d14)"><path fill="#000000" d="M 573.296875 387.585938 L 542.171875 362.1875 C 541.554688 361.6875 540.691406 361.730469 540.242188 362.28125 C 539.792969 362.835938 539.925781 363.6875 540.539062 364.1875 L 571.664062 389.585938 C 572.277344 390.085938 573.140625 390.042969 573.589844 389.492188 C 574.042969 388.941406 573.910156 388.085938 573.296875 387.585938 Z M 573.296875 387.585938 " fill-opacity="1" fill-rule="nonzero"/></g></g></g></g><g clip-path="url(#4168062d10)"><g clip-path="url(#e51d0a3d24)"><g clip-path="url(#a9c698f66d)"><path stroke-linecap="butt" transform="matrix(0.999849, 0.8158, -0.8158, 0.999849, 540.735147, 361.018413)" fill="none" stroke-linejoin="miter" d="M 0.0000840949 0.00104997 L 0.000508242 2.204162 L 33.687843 2.202501 L 33.687418 -0.000610905 L 0.0000840949 0.00104997 " stroke="#000000" stroke-width="48.79686" stroke-opacity="1" stroke-miterlimit="4"/></g></g></g><g clip-path="url(#6e9e9beff8)"><g clip-path="url(#d9a0c3c1e5)"><g clip-path="url(#8ff6b56b33)"><path fill="#ffbd59" d="M 565.421875 173.230469 L 614.941406 260.441406 L 529.398438 309.011719 L 479.882812 221.800781 Z M 565.421875 173.230469 " fill-opacity="1" fill-rule="nonzero"/></g></g></g><g clip-path="url(#8c948b55d4)"><g clip-path="url(#e3371f5540)"><g clip-path="url(#94d92d4e32)"><path fill="#262626" d="M 409.042969 212.308594 L 508.105469 199.300781 L 522.429688 308.421875 L 423.371094 321.429688 Z M 409.042969 212.308594 " fill-opacity="1" fill-rule="nonzero"/></g></g></g><path fill="#ffffff" d="M 535.183594 304.347656 C 536.238281 305.402344 537.242188 306.507812 538.1875 307.664062 C 539.136719 308.816406 540.027344 310.015625 540.855469 311.257812 C 541.6875 312.5 542.453125 313.78125 543.15625 315.097656 C 543.863281 316.417969 544.5 317.765625 545.070312 319.144531 C 545.644531 320.527344 546.144531 321.929688 546.578125 323.359375 C 547.011719 324.792969 547.375 326.238281 547.667969 327.703125 C 547.960938 329.167969 548.179688 330.644531 548.324219 332.132812 C 548.472656 333.621094 548.542969 335.109375 548.542969 336.605469 C 548.542969 338.097656 548.472656 339.589844 548.324219 341.074219 C 548.179688 342.5625 547.960938 344.039062 547.667969 345.503906 C 547.375 346.96875 547.015625 348.417969 546.582031 349.847656 C 546.148438 351.277344 545.644531 352.679688 545.070312 354.0625 C 544.5 355.441406 543.863281 356.792969 543.15625 358.109375 C 542.453125 359.425781 541.6875 360.707031 540.855469 361.949219 C 540.027344 363.191406 539.136719 364.390625 538.191406 365.542969 C 537.242188 366.699219 536.238281 367.804688 535.183594 368.863281 C 534.125 369.917969 533.019531 370.921875 531.867188 371.867188 C 530.710938 372.816406 529.511719 373.707031 528.269531 374.535156 C 527.027344 375.367188 525.746094 376.132812 524.429688 376.835938 C 523.113281 377.542969 521.765625 378.179688 520.382812 378.75 C 519.003906 379.324219 517.597656 379.824219 516.167969 380.257812 C 514.738281 380.695312 513.289062 381.054688 511.824219 381.347656 C 510.359375 381.640625 508.882812 381.859375 507.398438 382.003906 C 505.910156 382.152344 504.417969 382.222656 502.925781 382.222656 C 501.429688 382.222656 499.941406 382.152344 498.453125 382.003906 C 496.96875 381.859375 495.492188 381.640625 494.027344 381.347656 C 492.558594 381.054688 491.113281 380.695312 489.683594 380.261719 C 488.253906 379.828125 486.847656 379.324219 485.46875 378.753906 C 484.085938 378.179688 482.738281 377.542969 481.421875 376.839844 C 480.101562 376.132812 478.824219 375.367188 477.582031 374.535156 C 476.339844 373.707031 475.140625 372.816406 473.984375 371.871094 C 472.828125 370.921875 471.722656 369.917969 470.667969 368.863281 C 469.609375 367.808594 468.609375 366.699219 467.660156 365.546875 C 466.714844 364.390625 465.824219 363.191406 464.992188 361.949219 C 464.164062 360.707031 463.398438 359.429688 462.691406 358.109375 C 461.988281 356.792969 461.351562 355.445312 460.777344 354.0625 C 460.207031 352.683594 459.703125 351.277344 459.269531 349.847656 C 458.835938 348.417969 458.472656 346.972656 458.183594 345.503906 C 457.890625 344.039062 457.671875 342.5625 457.523438 341.078125 C 457.378906 339.589844 457.304688 338.097656 457.304688 336.605469 C 457.304688 335.113281 457.378906 333.621094 457.523438 332.132812 C 457.671875 330.648438 457.890625 329.171875 458.179688 327.707031 C 458.472656 326.238281 458.835938 324.792969 459.269531 323.363281 C 459.703125 321.933594 460.207031 320.527344 460.777344 319.148438 C 461.347656 317.765625 461.988281 316.417969 462.691406 315.101562 C 463.394531 313.78125 464.164062 312.503906 464.992188 311.261719 C 465.824219 310.019531 466.710938 308.820312 467.660156 307.664062 C 468.609375 306.507812 469.609375 305.402344 470.667969 304.347656 C 471.722656 303.289062 472.828125 302.289062 473.984375 301.339844 C 475.136719 300.394531 476.335938 299.503906 477.578125 298.675781 C 478.820312 297.84375 480.101562 297.078125 481.417969 296.371094 C 482.738281 295.667969 484.085938 295.03125 485.464844 294.457031 C 486.847656 293.886719 488.25 293.382812 489.679688 292.949219 C 491.109375 292.515625 492.558594 292.152344 494.023438 291.863281 C 495.488281 291.570312 496.964844 291.351562 498.453125 291.203125 C 499.9375 291.058594 501.429688 290.984375 502.925781 290.984375 C 504.417969 290.984375 505.910156 291.058594 507.394531 291.203125 C 508.882812 291.351562 510.359375 291.570312 511.824219 291.863281 C 513.289062 292.152344 514.738281 292.515625 516.167969 292.949219 C 517.597656 293.382812 519 293.886719 520.382812 294.457031 C 521.761719 295.027344 523.109375 295.667969 524.429688 296.371094 C 525.746094 297.074219 527.027344 297.84375 528.269531 298.671875 C 529.511719 299.503906 530.710938 300.390625 531.863281 301.339844 C 533.019531 302.289062 534.125 303.289062 535.183594 304.347656 Z M 535.183594 304.347656 " fill-opacity="1" fill-rule="nonzero"/><g clip-path="url(#d7f34de49e)"><path fill="#111111" d="M 502.925781 377.28125 C 480.453125 377.28125 462.246094 358.953125 462.246094 336.601562 C 462.246094 314.253906 480.453125 295.925781 502.925781 295.925781 C 525.398438 295.925781 543.605469 314.128906 543.605469 336.601562 C 543.605469 359.078125 525.273438 377.28125 502.925781 377.28125 Z M 502.925781 298.433594 C 481.832031 298.433594 464.757812 315.511719 464.757812 336.601562 C 464.757812 357.695312 481.832031 374.769531 502.925781 374.769531 C 524.019531 374.769531 541.09375 357.695312 541.09375 336.601562 C 541.09375 315.511719 523.894531 298.433594 502.925781 298.433594 Z M 502.925781 298.433594 " fill-opacity="1" fill-rule="nonzero"/></g><g clip-path="url(#1e3b7f6b86)"><g clip-path="url(#94ff2bffc3)"><g clip-path="url(#053d0ee8a7)"><path fill="#ffbd59" d="M 496.453125 360.738281 L 528.191406 329 C 528.816406 328.375 528.816406 327.359375 528.191406 326.734375 C 527.566406 326.109375 526.550781 326.109375 525.921875 326.734375 L 494.1875 358.46875 C 493.558594 359.097656 493.558594 360.113281 494.1875 360.738281 C 494.8125 361.363281 495.828125 361.363281 496.453125 360.738281 Z M 496.453125 360.738281 " fill-opacity="1" fill-rule="nonzero"/></g></g></g><g clip-path="url(#b2ab6299f5)"><g clip-path="url(#4f77daa807)"><g clip-path="url(#69b0aeca9b)"><path stroke-linecap="butt" transform="matrix(-0.912477, 0.912477, -0.912477, -0.912477, 529.687484, 327.503529)" fill="none" stroke-linejoin="miter" d="M 0.000198029 -0.000215916 L 0.000198029 2.482724 L 38.064096 2.484865 L 38.061956 -0.000215916 L 0.000198029 -0.000215916 " stroke="#ffbd59" stroke-width="48.79686" stroke-opacity="1" stroke-miterlimit="4"/></g></g></g><g clip-path="url(#ddf7b32d12)"><g clip-path="url(#73d7eb4f60)"><g clip-path="url(#99c7cabd8c)"><g clip-path="url(#87bdf18847)"><path fill="#000000" d="M 509.183594 323.039062 L 489.1875 343.035156 C 488.792969 343.429688 488.882812 344.15625 489.386719 344.660156 C 489.890625 345.164062 490.621094 345.253906 491.015625 344.859375 L 511.007812 324.863281 C 511.402344 324.46875 511.316406 323.742188 510.8125 323.238281 C 510.308594 322.734375 509.578125 322.644531 509.183594 323.039062 Z M 509.183594 323.039062 " fill-opacity="1" fill-rule="nonzero"/></g></g></g></g><g clip-path="url(#97765a782a)"><g clip-path="url(#8df3aff39a)"><g clip-path="url(#4c01f23f08)"><path stroke-linecap="butt" transform="matrix(0.912477, -0.912477, 0.912477, 0.912477, 488.236699, 343.98567)" fill="none" stroke-linejoin="miter" d="M 0.00157666 0.000157169 L -0.000563803 1.594804 L 24.437131 1.592664 L 24.437131 0.000157169 L 0.00157666 0.000157169 " stroke="#000000" stroke-width="48.79686" stroke-opacity="1" stroke-miterlimit="4"/></g></g></g></svg>