<svg xmlns="http://www.w3.org/2000/svg" xmlns:xlink="http://www.w3.org/1999/xlink" width="500" zoomAndPan="magnify" viewBox="0 0 375 374.999991" height="500" preserveAspectRatio="xMidYMid meet" version="1.0"><defs><clipPath id="5b717b1e0a"><path d="M 110.640625 106.679688 L 228.796875 106.679688 L 228.796875 227.609375 L 110.640625 227.609375 Z M 110.640625 106.679688 " clip-rule="nonzero"/></clipPath><clipPath id="60b79e47a7"><path d="M 127.890625 106.679688 L 211.546875 106.679688 C 216.125 106.679688 220.511719 108.5 223.746094 111.734375 C 226.980469 114.96875 228.796875 119.355469 228.796875 123.929688 L 228.796875 210.011719 C 228.796875 214.589844 226.980469 218.976562 223.746094 222.210938 C 220.511719 225.445312 216.125 227.261719 211.546875 227.261719 L 127.890625 227.261719 C 123.316406 227.261719 118.929688 225.445312 115.695312 222.210938 C 112.457031 218.976562 110.640625 214.589844 110.640625 210.011719 L 110.640625 123.929688 C 110.640625 119.355469 112.457031 114.96875 115.695312 111.734375 C 118.929688 108.5 123.316406 106.679688 127.890625 106.679688 Z M 127.890625 106.679688 " clip-rule="nonzero"/></clipPath><clipPath id="50e1abd66c"><path d="M 171 117 L 212 117 L 212 174 L 171 174 Z M 171 117 " clip-rule="nonzero"/></clipPath><clipPath id="bf6962a15d"><path d="M 201.144531 116.109375 L 221.949219 152.746094 L 182.375 175.21875 L 161.570312 138.578125 Z M 201.144531 116.109375 " clip-rule="nonzero"/></clipPath><clipPath id="b9a6d4a726"><path d="M 210.589844 132.742188 L 203.425781 120.121094 C 202.679688 118.808594 201.324219 117.949219 199.816406 117.832031 C 198.308594 117.714844 196.839844 118.355469 195.898438 119.542969 L 173.792969 147.433594 C 171.261719 150.628906 170.917969 155.042969 172.933594 158.589844 L 180.097656 171.210938 C 180.84375 172.523438 182.199219 173.382812 183.707031 173.5 C 185.214844 173.617188 186.683594 172.976562 187.625 171.789062 L 209.730469 143.898438 C 212.265625 140.703125 212.605469 136.289062 210.589844 132.742188 Z M 210.589844 132.742188 " clip-rule="nonzero"/></clipPath><clipPath id="2bb126d0f5"><path d="M 130 129 L 178 129 L 178 180 L 130 180 Z M 130 129 " clip-rule="nonzero"/></clipPath><clipPath id="7207b38dec"><path d="M 129.890625 132.050781 L 171.425781 126.597656 L 178.054688 177.082031 L 136.519531 182.535156 Z M 129.890625 132.050781 " clip-rule="nonzero"/></clipPath><clipPath id="a4c07334d3"><path d="M 146.476562 129.871094 L 134.4375 131.453125 C 132.9375 131.652344 131.632812 132.582031 130.957031 133.933594 C 130.28125 135.289062 130.320312 136.890625 131.066406 138.207031 L 151.457031 174.257812 C 153.464844 177.808594 157.425781 179.789062 161.472656 179.257812 L 173.511719 177.675781 C 175.011719 177.476562 176.316406 176.546875 176.992188 175.195312 C 177.667969 173.839844 177.625 172.238281 176.878906 170.921875 L 156.492188 134.871094 C 154.484375 131.320312 150.519531 129.34375 146.476562 129.871094 Z M 146.476562 129.871094 " clip-rule="nonzero"/></clipPath><clipPath id="f9e18b9ae5"><path d="M 152.359375 171.019531 L 189.972656 171.019531 L 189.972656 208.628906 L 152.359375 208.628906 Z M 152.359375 171.019531 " clip-rule="nonzero"/></clipPath><clipPath id="2488c1b2ef"><path d="M 185 201 L 201 201 L 201 215 L 185 215 Z M 185 201 " clip-rule="nonzero"/></clipPath><clipPath id="8f131b1132"><path d="M 185.449219 200.875 L 201.03125 213.59375 L 200.277344 214.519531 L 184.691406 201.800781 Z M 185.449219 200.875 " clip-rule="nonzero"/></clipPath><clipPath id="f6c7c47df4"><path d="M 185.449219 200.875 L 201.175781 213.710938 L 200.421875 214.632812 L 184.691406 201.800781 Z M 185.449219 200.875 " clip-rule="nonzero"/></clipPath><clipPath id="a982218116"><path d="M 185.449219 200.875 L 201.175781 213.710938 L 200.421875 214.632812 L 184.691406 201.800781 Z M 185.449219 200.875 " clip-rule="nonzero"/></clipPath><clipPath id="fb78872a26"><path d="M 184 200 L 202 200 L 202 215 L 184 215 Z M 184 200 " clip-rule="nonzero"/></clipPath><clipPath id="aa27f9d4b8"><path d="M 185.449219 200.875 L 201.175781 213.710938 L 200.421875 214.632812 L 184.691406 201.800781 Z M 185.449219 200.875 " clip-rule="nonzero"/></clipPath><clipPath id="8c73138a65"><path d="M 185.449219 200.875 L 201.03125 213.589844 L 200.199219 214.609375 L 184.617188 201.894531 Z M 185.449219 200.875 " clip-rule="nonzero"/></clipPath><clipPath id="71a4332ed0"><path d="M 167 185 L 183 185 L 183 201 L 167 201 Z M 167 185 " clip-rule="nonzero"/></clipPath><clipPath id="cd13f217a6"><path d="M 182.546875 185.628906 L 167.492188 200.683594 L 167.453125 200.644531 L 182.507812 185.589844 Z M 182.546875 185.628906 " clip-rule="nonzero"/></clipPath><clipPath id="9f6185b7cc"><path d="M 183.558594 185.628906 L 167.519531 201.671875 L 166.675781 200.824219 L 182.714844 184.785156 Z M 183.558594 185.628906 " clip-rule="nonzero"/></clipPath><clipPath id="f6ab33642d"><path d="M 166 184 L 184 184 L 184 202 L 166 202 Z M 166 184 " clip-rule="nonzero"/></clipPath><clipPath id="9f2b4339e6"><path d="M 183.558594 185.628906 L 167.519531 201.671875 L 166.675781 200.824219 L 182.714844 184.785156 Z M 183.558594 185.628906 " clip-rule="nonzero"/></clipPath><clipPath id="b1d116eb0e"><path d="M 183.558594 185.628906 L 167.492188 201.695312 L 166.441406 200.648438 L 182.511719 184.578125 Z M 183.558594 185.628906 " clip-rule="nonzero"/></clipPath><clipPath id="f4b8e12bdf"><path d="M 164 182 L 175 182 L 175 193 L 164 193 Z M 164 182 " clip-rule="nonzero"/></clipPath><clipPath id="679aba2071"><path d="M 164.007812 192.460938 L 174.140625 182.332031 L 174.816406 183.007812 L 164.683594 193.136719 Z M 164.007812 192.460938 " clip-rule="nonzero"/></clipPath><clipPath id="277348b02a"><path d="M 164.007812 192.460938 L 174.140625 182.332031 L 174.984375 183.175781 L 164.851562 193.308594 Z M 164.007812 192.460938 " clip-rule="nonzero"/></clipPath><clipPath id="5f5b8f38d2"><path d="M 164.007812 192.460938 L 174.140625 182.332031 L 174.984375 183.175781 L 164.851562 193.308594 Z M 164.007812 192.460938 " clip-rule="nonzero"/></clipPath><clipPath id="dd97022b83"><path d="M 164 182 L 175 182 L 175 194 L 164 194 Z M 164 182 " clip-rule="nonzero"/></clipPath><clipPath id="190bb82744"><path d="M 164.007812 192.460938 L 174.140625 182.332031 L 174.984375 183.175781 L 164.851562 193.308594 Z M 164.007812 192.460938 " clip-rule="nonzero"/></clipPath><clipPath id="fa839cf30f"><path d="M 164.007812 192.460938 L 174.324219 182.144531 L 174.996094 182.820312 L 164.679688 193.136719 Z M 164.007812 192.460938 " clip-rule="nonzero"/></clipPath></defs><rect x="-37.5" width="450" fill="#ffffff" y="-37.499999" height="449.999989" fill-opacity="1"/><rect x="-37.5" width="450" fill="#ffffff" y="-37.499999" height="449.999989" fill-opacity="1"/><g clip-path="url(#5b717b1e0a)"><g clip-path="url(#60b79e47a7)"><path fill="#ffffff" d="M 110.640625 106.679688 L 228.796875 106.679688 L 228.796875 227.144531 L 110.640625 227.144531 Z M 110.640625 106.679688 " fill-opacity="1" fill-rule="nonzero"/></g></g><g clip-path="url(#50e1abd66c)"><g clip-path="url(#bf6962a15d)"><g clip-path="url(#b9a6d4a726)"><path fill="#ffbd59" d="M 200.09375 114.253906 L 223.003906 154.601562 L 183.425781 177.070312 L 160.515625 136.722656 Z M 200.09375 114.253906 " fill-opacity="1" fill-rule="nonzero"/></g></g></g><g clip-path="url(#2bb126d0f5)"><g clip-path="url(#7207b38dec)"><g clip-path="url(#a4c07334d3)"><path fill="#262626" d="M 127.742188 132.332031 L 173.574219 126.316406 L 180.203125 176.800781 L 134.371094 182.816406 Z M 127.742188 132.332031 " fill-opacity="1" fill-rule="nonzero"/></g></g></g><path fill="#ffffff" d="M 186.101562 174.914062 C 186.589844 175.402344 187.054688 175.914062 187.492188 176.449219 C 187.933594 176.984375 188.34375 177.539062 188.726562 178.113281 C 189.109375 178.6875 189.464844 179.28125 189.792969 179.890625 C 190.117188 180.5 190.414062 181.121094 190.675781 181.761719 C 190.941406 182.398438 191.175781 183.050781 191.375 183.710938 C 191.574219 184.375 191.742188 185.042969 191.878906 185.722656 C 192.011719 186.398438 192.113281 187.082031 192.183594 187.769531 C 192.25 188.457031 192.285156 189.148438 192.285156 189.839844 C 192.285156 190.53125 192.25 191.21875 192.183594 191.90625 C 192.113281 192.59375 192.015625 193.277344 191.878906 193.957031 C 191.742188 194.632812 191.578125 195.304688 191.375 195.964844 C 191.175781 196.625 190.941406 197.277344 190.679688 197.914062 C 190.414062 198.554688 190.117188 199.179688 189.792969 199.789062 C 189.464844 200.398438 189.113281 200.988281 188.726562 201.5625 C 188.34375 202.140625 187.933594 202.695312 187.492188 203.226562 C 187.054688 203.761719 186.589844 204.273438 186.101562 204.761719 C 185.613281 205.25 185.101562 205.714844 184.566406 206.152344 C 184.035156 206.59375 183.480469 207.003906 182.90625 207.386719 C 182.328125 207.773438 181.738281 208.125 181.128906 208.453125 C 180.519531 208.777344 179.894531 209.074219 179.253906 209.339844 C 178.617188 209.601562 177.96875 209.835938 177.304688 210.035156 C 176.644531 210.238281 175.972656 210.402344 175.296875 210.539062 C 174.617188 210.675781 173.933594 210.773438 173.246094 210.84375 C 172.558594 210.910156 171.871094 210.945312 171.179688 210.945312 C 170.488281 210.945312 169.796875 210.910156 169.109375 210.84375 C 168.421875 210.777344 167.738281 210.675781 167.0625 210.539062 C 166.382812 210.40625 165.714844 210.238281 165.050781 210.035156 C 164.390625 209.835938 163.742188 209.601562 163.101562 209.339844 C 162.464844 209.074219 161.839844 208.777344 161.230469 208.453125 C 160.621094 208.125 160.027344 207.773438 159.453125 207.386719 C 158.878906 207.003906 158.324219 206.59375 157.789062 206.152344 C 157.253906 205.714844 156.742188 205.253906 156.253906 204.761719 C 155.765625 204.273438 155.300781 203.761719 154.863281 203.230469 C 154.425781 202.695312 154.015625 202.140625 153.628906 201.566406 C 153.246094 200.988281 152.890625 200.398438 152.566406 199.789062 C 152.238281 199.179688 151.945312 198.554688 151.679688 197.917969 C 151.414062 197.277344 151.183594 196.628906 150.980469 195.964844 C 150.78125 195.304688 150.613281 194.632812 150.476562 193.957031 C 150.34375 193.277344 150.242188 192.597656 150.175781 191.90625 C 150.105469 191.21875 150.074219 190.53125 150.074219 189.839844 C 150.074219 189.148438 150.105469 188.457031 150.175781 187.769531 C 150.242188 187.082031 150.34375 186.398438 150.476562 185.722656 C 150.613281 185.042969 150.78125 184.375 150.980469 183.710938 C 151.183594 183.050781 151.414062 182.402344 151.679688 181.761719 C 151.945312 181.125 152.238281 180.5 152.566406 179.890625 C 152.890625 179.28125 153.246094 178.6875 153.628906 178.113281 C 154.011719 177.539062 154.425781 176.984375 154.863281 176.449219 C 155.300781 175.914062 155.765625 175.402344 156.253906 174.914062 C 156.742188 174.425781 157.253906 173.960938 157.789062 173.523438 C 158.324219 173.085938 158.878906 172.675781 159.453125 172.289062 C 160.027344 171.90625 160.621094 171.550781 161.230469 171.226562 C 161.839844 170.898438 162.460938 170.605469 163.101562 170.339844 C 163.738281 170.074219 164.390625 169.84375 165.050781 169.640625 C 165.710938 169.441406 166.382812 169.273438 167.058594 169.136719 C 167.738281 169.003906 168.421875 168.902344 169.109375 168.835938 C 169.796875 168.765625 170.488281 168.734375 171.179688 168.734375 C 171.871094 168.734375 172.558594 168.765625 173.246094 168.835938 C 173.933594 168.902344 174.617188 169.003906 175.296875 169.136719 C 175.972656 169.273438 176.644531 169.441406 177.304688 169.640625 C 177.964844 169.84375 178.617188 170.074219 179.253906 170.339844 C 179.894531 170.605469 180.519531 170.898438 181.128906 171.226562 C 181.738281 171.550781 182.328125 171.90625 182.902344 172.289062 C 183.480469 172.671875 184.035156 173.085938 184.566406 173.523438 C 185.101562 173.960938 185.613281 174.425781 186.101562 174.914062 Z M 186.101562 174.914062 " fill-opacity="1" fill-rule="nonzero"/><g clip-path="url(#f9e18b9ae5)"><path fill="#111111" d="M 171.179688 208.660156 C 160.78125 208.660156 152.359375 200.175781 152.359375 189.839844 C 152.359375 179.5 160.78125 171.019531 171.179688 171.019531 C 181.578125 171.019531 190 179.441406 190 189.839844 C 190 200.234375 181.519531 208.660156 171.179688 208.660156 Z M 171.179688 172.179688 C 161.421875 172.179688 153.519531 180.078125 153.519531 189.839844 C 153.519531 199.597656 161.421875 207.496094 171.179688 207.496094 C 180.9375 207.496094 188.835938 199.597656 188.835938 189.839844 C 188.835938 180.078125 180.878906 172.179688 171.179688 172.179688 Z M 171.179688 172.179688 " fill-opacity="1" fill-rule="nonzero"/></g><g clip-path="url(#2488c1b2ef)"><g clip-path="url(#8f131b1132)"><g clip-path="url(#f6c7c47df4)"><g clip-path="url(#a982218116)"><path fill="#000000" d="M 200.511719 213.167969 L 186.113281 201.417969 C 185.828125 201.1875 185.429688 201.207031 185.21875 201.460938 C 185.011719 201.71875 185.074219 202.113281 185.355469 202.34375 L 199.757812 214.09375 C 200.042969 214.324219 200.441406 214.304688 200.648438 214.050781 C 200.855469 213.792969 200.796875 213.398438 200.511719 213.167969 Z M 200.511719 213.167969 " fill-opacity="1" fill-rule="nonzero"/></g></g></g></g><g clip-path="url(#fb78872a26)"><g clip-path="url(#aa27f9d4b8)"><g clip-path="url(#8c73138a65)"><path stroke-linecap="butt" transform="matrix(0.462582, 0.377431, -0.377431, 0.462582, 185.447966, 200.876764)" fill="none" stroke-linejoin="miter" d="M -0.000241575 -0.00361543 L -0.000464537 2.200568 L 33.685613 2.201995 L 33.685836 -0.00218896 L -0.000241575 -0.00361543 " stroke="#000000" stroke-width="105.523567" stroke-opacity="1" stroke-miterlimit="4"/></g></g></g><g clip-path="url(#71a4332ed0)"><g clip-path="url(#cd13f217a6)"><g clip-path="url(#9f6185b7cc)"><path fill="#ffbd59" d="M 168.183594 201.003906 L 182.867188 186.320312 C 183.15625 186.03125 183.15625 185.5625 182.867188 185.273438 C 182.578125 184.980469 182.109375 184.980469 181.820312 185.273438 L 167.136719 199.957031 C 166.847656 200.246094 166.847656 200.714844 167.136719 201.003906 C 167.425781 201.292969 167.894531 201.292969 168.183594 201.003906 Z M 168.183594 201.003906 " fill-opacity="1" fill-rule="nonzero"/></g></g></g><g clip-path="url(#f6ab33642d)"><g clip-path="url(#9f2b4339e6)"><g clip-path="url(#b1d116eb0e)"><path stroke-linecap="butt" transform="matrix(-0.422159, 0.422159, -0.422159, -0.422159, 183.560251, 185.628151)" fill="none" stroke-linejoin="miter" d="M 0.00285714 0.00106815 L -0.00176937 2.485507 L 38.065194 2.485507 L 38.060567 0.00106815 L 0.00285714 0.00106815 " stroke="#ffbd59" stroke-width="105.523567" stroke-opacity="1" stroke-miterlimit="4"/></g></g></g><g clip-path="url(#f4b8e12bdf)"><g clip-path="url(#679aba2071)"><g clip-path="url(#277348b02a)"><g clip-path="url(#5f5b8f38d2)"><path fill="#000000" d="M 173.699219 182.769531 L 164.449219 192.023438 C 164.265625 192.203125 164.308594 192.542969 164.539062 192.773438 C 164.773438 193.007812 165.109375 193.050781 165.292969 192.867188 L 174.542969 183.617188 C 174.726562 183.433594 174.683594 183.097656 174.453125 182.863281 C 174.21875 182.628906 173.882812 182.589844 173.699219 182.769531 Z M 173.699219 182.769531 " fill-opacity="1" fill-rule="nonzero"/></g></g></g></g><g clip-path="url(#dd97022b83)"><g clip-path="url(#190bb82744)"><g clip-path="url(#fa839cf30f)"><path stroke-linecap="butt" transform="matrix(0.422159, -0.422159, 0.422159, 0.422159, 164.007591, 192.462599)" fill="none" stroke-linejoin="miter" d="M 0.00223024 -0.00170634 L -0.00239628 1.594441 L 24.434856 1.594441 L 24.439482 -0.00170634 L 0.00223024 -0.00170634 " stroke="#000000" stroke-width="105.523567" stroke-opacity="1" stroke-miterlimit="4"/></g></g></g></svg>