<svg xmlns="http://www.w3.org/2000/svg" xmlns:xlink="http://www.w3.org/1999/xlink" viewBox="0 0 500 500"><defs><clipPath id="freepik--clip-path--inject-28"><path d="M400.76,226.06l.33.21c2.81,1.78,19.94,12.22,20.62,12.67s13.53,45.32,14.27,53.15l1,3.42-.7,1.91a.94.94,0,0,1-1.79-.07L418.61,240Z" style="fill:#FFC300;stroke:#263238;stroke-linecap:round;stroke-linejoin:round"></path></clipPath><clipPath id="freepik--clip-path-2--inject-28"><path d="M400.76,226.06s-10.52,9.05-8.31,25.68l10,29.59s-5.62,23.23-4.64,23.48,27.87,5.38,30.07-3.92,2.21-27.87,1-34.72S414.7,235,414.33,234.74C414.45,234.74,399.82,226.15,400.76,226.06Z" style="fill:#FFC300;stroke:#263238;stroke-linecap:round;stroke-linejoin:round"></path></clipPath><clipPath id="freepik--clip-path-3--inject-28"><path d="M440.38,265c-.62,2-4.85,4.81-7.92,6.63a6,6,0,0,1-6.22,0l-12-7.33s-17.12-12-17.12-21.27,7.34-9.79,7.34-9.79,4.65-.49,7.82,5.38c1.59,2.93,5.55,7.5,9,11.34,3.25,3.62,6,6.61,6,7-.18,0-.21,0-.05,0s.05,0,.05,0a43.14,43.14,0,0,1,6.83-.07,4.29,4.29,0,0,1,.7.11C437,257.36,441.36,261.77,440.38,265Z" style="fill:#FFC300;stroke:#263238;stroke-linecap:round;stroke-linejoin:round"></path></clipPath></defs><g id="freepik--Shadow--inject-28"><ellipse cx="254.17" cy="421.27" rx="146.85" ry="21.39" style="fill:#FFC300"></ellipse><ellipse cx="254.17" cy="421.27" rx="146.85" ry="21.39" style="fill:#fff;opacity:0.6000000000000001"></ellipse></g><g id="freepik--Monitor--inject-28"><path d="M200.15,422.34h104.4v3.29c0,.84-1.09,1.52-2.44,1.52H202.59c-1.35,0-2.44-.68-2.44-1.52Z" style="fill:#263238"></path><path d="M287.24,398.22V355.28h-69.8v42.94c0,5.93-11.48,17.53-16.84,22.63a1.45,1.45,0,0,0,1,2.5H303.1a1.45,1.45,0,0,0,1-2.5C298.74,415.75,287.24,404.15,287.24,398.22Z" style="fill:#bfbfbf;stroke:#263238;stroke-linecap:round;stroke-linejoin:round"></path><line x1="274.13" y1="399.17" x2="283.16" y2="399.17" style="fill:none;stroke:#263238;stroke-linecap:round;stroke-linejoin:round"></line><line x1="221.61" y1="399.17" x2="267.48" y2="399.17" style="fill:none;stroke:#263238;stroke-linecap:round;stroke-linejoin:round"></line><g style="opacity:0.5"><path d="M210.45,413.19l20-11.88,2.37.23s-25.19,17.35-20,17.83,16.87.95,16.87.95l-22.95.82a1.47,1.47,0,0,1-1.16-2.44Z" style="fill:#fff"></path><path d="M218.52,401.07c0-.71,67.25,0,67.25,0s.48,3.56,2.38,5.23-2.38-3.57-5.47-3.57-60.59-1.42-62.25-.23-13.55,14.73-13.55,14.73Z" style="fill:#fff"></path><path d="M220.19,369.47l-.22,24.1a2.49,2.49,0,0,0,2.49,2.51h62.36V384.44s-.95,7.6-3.32,8.31-55.79,2.65-57,.24C221.14,386.57,220.19,369.47,220.19,369.47Z" style="fill:#fff"></path></g><path d="M287.44,367.8l-.23-.05a143.54,143.54,0,0,0-69.87.05h0V355.45h70.1Z" style="fill:#263238"></path><rect x="111.67" y="197.74" width="280.79" height="157.95" rx="1.59" style="fill:#fff"></rect><path d="M394.72,194.61a5.93,5.93,0,0,0-2.49-1.22,6.07,6.07,0,0,0-1.35-.15H113.26a6.09,6.09,0,0,0-6.09,6.08V354.1a6,6,0,0,0,1.56,4,6.07,6.07,0,0,0,4.53,2H390.88A6.09,6.09,0,0,0,397,354.1V199.32A6.08,6.08,0,0,0,394.72,194.61ZM392,354.1a1.08,1.08,0,0,1-1.08,1.08H113.26a1.08,1.08,0,0,1-1.09-1.08V199.32a1.09,1.09,0,0,1,1.09-1.08H390.88a1.08,1.08,0,0,1,1.08,1.08Z" style="fill:#263238"></path><rect x="112.29" y="326.1" width="279.7" height="29.1" style="fill:#FFC300"></rect><path d="M190.27,311.3s35.9-22.74,166.28-29.11h35s.17,51.68.17,58.37C391.75,340.56,152.11,353.79,190.27,311.3Z" style="fill:#FFC300"></path><path d="M190.28,311.3s36-22.74,166.56-29.11h35.1s.17,51.68.17,58.37C392.11,340.56,152.05,353.79,190.28,311.3Z" style="fill:#fff;opacity:0.30000000000000004"></path><path d="M390.66,260.43c-.7-7.13-8.1-11.54-14.65-11.1s-12.43,4.3-18.22,7.67-22.57,18.9-29,17.61c-11.61-2.33-18.16-17.53-29.72-20.08-14.76-3.26-29.52,15.71-43.23,8.88-8.38-4.17-11.66-16.39-20.24-20-7.83-3.32-16.37,1.93-23.17,7.31s-14.53,11.54-22.77,9.8c-34-7.2-38.09-30.1-62.31-28.57-6,.38-12.47,4.34-15,10.11V350.21l80.68-2.8c-8.07-4.62-9.55-7.15-2.71-14.79,0,0,35.79-22.74,165.76-29.11H391S393.52,260.29,390.66,260.43Z" style="fill:#FFC300"></path><path d="M390.66,260.43c-.7-7.13-8.1-11.54-14.66-11.1s-12.42,4.29-18.22,7.67-22.56,18.9-29,17.61c-11.6-2.33-18.15-17.53-29.72-20.09-14.76-3.25-29.52,15.72-43.23,8.89-8.37-4.17-11.65-16.39-20.24-20-7.83-3.32-16.36,1.93-23.16,7.31s-14.53,11.54-22.77,9.8c-34-7.2-38.09-30.1-62.31-28.57-6,.38-12.47,4.33-15,10.1V350.21l80.68-2.8c-8.06-4.62-9.55-7.15-2.7-14.79a42.62,42.62,0,0,1,5-2.53C208.92,324,252.73,308.57,356,303.51H391s0-.31.05-.87C391.35,296.52,393.28,260.3,390.66,260.43Z" style="fill:#fff;opacity:0.4"></path><path d="M391,302.64c0,.56-.05.87-.05.87H356c-103.29,5.06-147.1,20.47-160.73,26.58-9.43-4.54-12.32-10.64-5-18.79,0,0,35.79-22.74,165.76-29.11H391S391,291.45,391,302.64Z" style="fill:#fff;opacity:0.30000000000000004"></path><path d="M112.29,350.49l279.09-9.64s-6.06-10.63-35.1-13.48c-54.95-5.39-234.09-28.74-244-30Z" style="fill:#FFC300"></path><path d="M112.29,350.49l279.09-9.64s-6.06-10.63-35.1-13.48c-54.95-5.39-234.09-28.74-244-30Z" style="fill:#fff;opacity:0.2"></path><path d="M288.55,288.33s30.53-9.46,54-46.35c11.72-18.45,23.83-11.9,33-.75C385.61,253.49,391,269.56,391,286.05v1.19S377.36,304.78,288.55,288.33Z" style="fill:#FFC300"></path><path d="M291.63,287.17s27.45-8.3,50.89-45.19c11.72-18.45,23.83-11.9,33-.75C385.61,253.49,391,269.56,391,286.05v1.19s-2.5,3.8-13.37,5.85C361.86,296.05,333.16,298.89,291.63,287.17Z" style="fill:#fff;opacity:0.2"></path><path d="M350,233.41s-4.19,7.29,2.44,6.34c2.7-.38.06,8.78-4,19.77-8.23,22.17-18.38,34.77-39.38,32.22-7.57-.92-33.5-2.35-33.5-2.35h0c26.51-12.36,50.69-30.79,71.14-52.95a19.75,19.75,0,0,1,2.69-2.43Z" style="fill:#FFC300"></path><path d="M350,233.41s-4.19,7.29,2.44,6.34c2.7-.38.06,8.78-4,19.77-8.23,22.17-18.38,34.77-39.38,32.22-7.57-.92-33.5-2.35-33.5-2.35h0c26.51-12.36,50.69-30.79,71.14-52.95a19.75,19.75,0,0,1,2.69-2.43Z" style="fill:#fff;opacity:0.6000000000000001"></path><path d="M339.18,294.94h0a44.75,44.75,0,0,0,16.2-26.16l.79-3.67,3.95,30.26A200,200,0,0,1,339.18,294.94Z" style="fill:#fff;opacity:0.4"></path><g style="opacity:0.30000000000000004"><path d="M394.72,194.61l-2.25,7-.51,1.58-13.54,42L377,249.46l-10.57,32.77-4.15,12.86,0,.06-2.68,8.32-7.53,23.33-.46,1.43L347.19,342l-.07.22-1.78,5.49-.84,2.62-.59,1.83-1,3-.16.5-1.45,4.5v0H308.77v0l1.44-4.5.16-.5,1.48-4.62.6-1.88,1.71-5.34h0l.32-1,.09-.28,6-18.74,5.76-18h0l3.43-10.68.13-.42,2.65-8.27.74-2.32v-.05l3.68-11.5,12-37.41,0-.1,11.64-36.33.16-.5,1.39-4.35h30A5.93,5.93,0,0,1,394.72,194.61Z" style="fill:#fff;opacity:0.4"></path></g><path d="M194.41,193.39l-1.4,4.35-.16.5-18.41,57.08L159,303.23l-6.82,21.17-7.91,24.52-.1.3-1.72,5.33-.2.63-.16.5-1.45,4.5H113.26a6.07,6.07,0,0,1-4.53-2l2.94-9.19.5-1.56.47-1.47.12-.38v0l.12-.37,2.4-7.48,12.32-38.48,19.86-62L160,198.24l.16-.5,1.39-4.35Z" style="fill:#fff;opacity:0.2"></path><polygon points="107.32 339.89 142.26 231.53 144 226.12 147.05 216.68 149.85 207.99 154.56 193.39 146.09 193.39 138.63 216.68 135.61 226.12 133.88 231.53 107.32 314.45 107.32 339.89" style="fill:#fff;opacity:0.30000000000000004"></polygon></g><g id="freepik--Sparkles--inject-28"><path d="M207.88,153.5l1.43,5.55a12.61,12.61,0,0,0,7.77,8.68l3.09,1.16-3.32,1.25a12.61,12.61,0,0,0-7.67,8.29l-1.72,5.89-1.65-5.71a12.62,12.62,0,0,0-8-8.39l-3.8-1.33,3.56-1.25a12.62,12.62,0,0,0,8.06-8.77l1.38-5.37A.43.43,0,0,1,207.88,153.5Z" style="fill:#FFC300"></path><path d="M302.69,153.5l1.43,5.55a12.6,12.6,0,0,0,7.78,8.68l3.08,1.16-3.32,1.25a12.61,12.61,0,0,0-7.67,8.29l-1.71,5.89-1.66-5.71a12.62,12.62,0,0,0-8-8.39l-3.8-1.33,3.56-1.25a12.6,12.6,0,0,0,8.06-8.77l1.38-5.37A.43.43,0,0,1,302.69,153.5Z" style="fill:#FFC300"></path><path d="M255.66,137.2l1.78,6.9a15.66,15.66,0,0,0,9.65,10.77l3.83,1.44-4.12,1.55a15.64,15.64,0,0,0-9.52,10.29l-2.13,7.32-2.06-7.09A15.68,15.68,0,0,0,243.21,158l-4.72-1.65,4.42-1.55a15.66,15.66,0,0,0,10-10.9l1.71-6.66A.53.53,0,0,1,255.66,137.2Z" style="fill:#FFC300"></path><path d="M207.88,153.5l1.43,5.55a12.61,12.61,0,0,0,7.77,8.68l3.09,1.16-3.32,1.25a12.61,12.61,0,0,0-7.67,8.29l-1.72,5.89-1.65-5.71a12.62,12.62,0,0,0-8-8.39l-3.8-1.33,3.56-1.25a12.62,12.62,0,0,0,8.06-8.77l1.38-5.37A.43.43,0,0,1,207.88,153.5Z" style="fill:#fff;opacity:0.5"></path><path d="M302.69,153.5l1.43,5.55a12.6,12.6,0,0,0,7.78,8.68l3.08,1.16-3.32,1.25a12.61,12.61,0,0,0-7.67,8.29l-1.71,5.89-1.66-5.71a12.62,12.62,0,0,0-8-8.39l-3.8-1.33,3.56-1.25a12.6,12.6,0,0,0,8.06-8.77l1.38-5.37A.43.43,0,0,1,302.69,153.5Z" style="fill:#fff;opacity:0.5"></path><path d="M255.66,137.2l1.78,6.9a15.66,15.66,0,0,0,9.65,10.77l3.83,1.44-4.12,1.55a15.64,15.64,0,0,0-9.52,10.29l-2.13,7.32-2.06-7.09A15.68,15.68,0,0,0,243.21,158l-4.72-1.65,4.42-1.55a15.66,15.66,0,0,0,10-10.9l1.71-6.66A.53.53,0,0,1,255.66,137.2Z" style="fill:#fff;opacity:0.5"></path></g></svg>