<svg xmlns="http://www.w3.org/2000/svg" xmlns:xlink="http://www.w3.org/1999/xlink" width="500" zoomAndPan="magnify" viewBox="0 0 375 374.999991" height="500" preserveAspectRatio="xMidYMid meet" version="1.2"><defs><clipPath id="9268e4ce70"><path d="M 72.402344 81.703125 L 187.5 81.703125 L 187.5 261.820312 L 72.402344 261.820312 Z M 72.402344 81.703125 "/></clipPath><clipPath id="1f08c4a46e"><path d="M 187.5 113.179688 L 302.597656 113.179688 L 302.597656 293.296875 L 187.5 293.296875 Z M 187.5 113.179688 "/></clipPath></defs><g id="f585440288"><g clip-rule="nonzero" clip-path="url(#9268e4ce70)"><path style=" stroke:none;fill-rule:nonzero;fill:#000000;fill-opacity:1;" d="M 72.402344 81.703125 L 187.5 81.703125 L 187.5 261.992188 L 72.402344 261.992188 Z M 72.402344 81.703125 "/></g><g clip-rule="nonzero" clip-path="url(#1f08c4a46e)"><path style=" stroke:none;fill-rule:nonzero;fill:#ffbd59;fill-opacity:1;" d="M 187.5 113.179688 L 302.597656 113.179688 L 302.597656 293.46875 L 187.5 293.46875 Z M 187.5 113.179688 "/></g><path style="fill:none;stroke-width:2;stroke-linecap:butt;stroke-linejoin:miter;stroke:#ffffff;stroke-opacity:1;stroke-miterlimit:4;" d="M 0.0000479299 0.999517 L 125.529799 1.000161 " transform="matrix(1.8338,1.685597,-1.685597,1.8338,74.083132,79.881849)"/><path style="fill:none;stroke-width:2;stroke-linecap:butt;stroke-linejoin:miter;stroke:#ffffff;stroke-opacity:1;stroke-miterlimit:4;" d="M -0.000249052 0.999375 L 110.010613 0.999833 " transform="matrix(2.092472,-1.351154,1.351154,2.092472,71.048649,259.720999)"/></g></svg>