<svg xmlns="http://www.w3.org/2000/svg" xmlns:xlink="http://www.w3.org/1999/xlink" width="500" zoomAndPan="magnify" viewBox="0 0 375 374.999991" height="500" preserveAspectRatio="xMidYMid meet" version="1.2"><defs><clipPath id="6a6ac537f8"><path d="M 68.234375 70.480469 L 187.5 70.480469 L 187.5 257.117188 L 68.234375 257.117188 Z M 68.234375 70.480469 "/></clipPath><clipPath id="b9fa84bee2"><path d="M 187.5 103.097656 L 306.765625 103.097656 L 306.765625 289.730469 L 187.5 289.730469 Z M 187.5 103.097656 "/></clipPath></defs><g id="d87b281ec9"><rect x="0" width="375" y="0" height="374.999991" style="fill:#ffffff;fill-opacity:1;stroke:none;"/><rect x="0" width="375" y="0" height="374.999991" style="fill:#ffffff;fill-opacity:1;stroke:none;"/><g clip-rule="nonzero" clip-path="url(#6a6ac537f8)"><path style=" stroke:none;fill-rule:nonzero;fill:#000000;fill-opacity:1;" d="M 68.234375 70.480469 L 187.5 70.480469 L 187.5 257.296875 L 68.234375 257.296875 Z M 68.234375 70.480469 "/></g><g clip-rule="nonzero" clip-path="url(#b9fa84bee2)"><path style=" stroke:none;fill-rule:nonzero;fill:#000000;fill-opacity:1;" d="M 187.5 103.097656 L 306.765625 103.097656 L 306.765625 289.910156 L 187.5 289.910156 Z M 187.5 103.097656 "/></g><path style="fill:none;stroke-width:4;stroke-linecap:butt;stroke-linejoin:miter;stroke:#ffffff;stroke-opacity:1;stroke-miterlimit:4;" d="M -0.0005645 2.001371 L 244.179293 1.998229 " transform="matrix(0.976168,0.897276,-0.897276,0.976168,70.030709,68.531208)"/><path style="fill:none;stroke-width:4;stroke-linecap:butt;stroke-linejoin:miter;stroke:#ffffff;stroke-opacity:1;stroke-miterlimit:4;" d="M 0.0000981769 1.998711 L 213.992271 2.000363 " transform="matrix(1.114649,-0.719752,0.719752,1.114649,66.795689,254.885491)"/></g></svg>