<svg xmlns="http://www.w3.org/2000/svg" xmlns:xlink="http://www.w3.org/1999/xlink" width="500" zoomAndPan="magnify" viewBox="0 0 375 374.999991" height="500" preserveAspectRatio="xMidYMid meet" version="1.2"><defs><clipPath id="00b214a37d"><path d="M 69.792969 67.125 L 193.207031 67.125 L 193.207031 260.257812 L 69.792969 260.257812 Z M 69.792969 67.125 "/></clipPath><clipPath id="59df5ecf79"><path d="M 193.207031 100.875 L 316.617188 100.875 L 316.617188 294.003906 L 193.207031 294.003906 Z M 193.207031 100.875 "/></clipPath></defs><g id="dd57ba6150"><rect x="0" width="375" y="0" height="374.999991" style="fill:#ffffff;fill-opacity:1;stroke:none;"/><rect x="0" width="375" y="0" height="374.999991" style="fill:#000000;fill-opacity:1;stroke:none;"/><g clip-rule="nonzero" clip-path="url(#00b214a37d)"><path style=" stroke:none;fill-rule:nonzero;fill:#ffffff;fill-opacity:1;" d="M 69.792969 67.125 L 193.207031 67.125 L 193.207031 260.441406 L 69.792969 260.441406 Z M 69.792969 67.125 "/></g><g clip-rule="nonzero" clip-path="url(#59df5ecf79)"><path style=" stroke:none;fill-rule:nonzero;fill:#ffffff;fill-opacity:1;" d="M 193.207031 100.875 L 316.617188 100.875 L 316.617188 294.191406 L 193.207031 294.191406 Z M 193.207031 100.875 "/></g><path style="fill:none;stroke-width:4;stroke-linecap:butt;stroke-linejoin:miter;stroke:#000000;stroke-opacity:1;stroke-miterlimit:4;" d="M 0.000234919 2.000042 L 244.179537 2.000147 " transform="matrix(1.010128,0.928492,-0.928492,1.010128,71.649756,65.108389)"/><path style="fill:none;stroke-width:4;stroke-linecap:butt;stroke-linejoin:miter;stroke:#000000;stroke-opacity:1;stroke-miterlimit:4;" d="M 0.000285738 2.001157 L 213.993532 1.999204 " transform="matrix(1.153427,-0.744792,0.744792,1.153427,68.302193,257.94593)"/></g></svg>