<svg xmlns="http://www.w3.org/2000/svg" viewBox="0 0 106 24" aria-labelledby=":R1cjtrdb:" width="136" height="31" class="h-6 w-auto"><g clip-path="url(#clip0_3775_6360)" fill="currentColor"><path d="M1.586 12.58c-1.232.283-2 1.447-1.7 2.695a2.226 2.226 0 0 0 2.699 1.699c1.232-.283 1.983-1.448 1.7-2.696a2.225 2.225 0 0 0-2.699-1.698M2.65 7.87c.984.784 2.366.65 3.166-.349s.617-2.379-.35-3.162a2.225 2.225 0 0 0-3.165.35c-.8.999-.617 2.379.35 3.162m5.965 11.832A2.237 2.237 0 0 0 5.6 20.752c-.55 1.13-.1 2.446 1.05 3.011a2.237 2.237 0 0 0 3.015-1.049c.533-1.147.1-2.462-1.05-3.011m6.931-.001a2.225 2.225 0 0 0-1.05 3.011c.55 1.131 1.849 1.615 3.015 1.05a2.225 2.225 0 0 0 1.05-3.012c-.55-1.131-1.864-1.614-3.015-1.049m7.032-7.122a2.22 2.22 0 0 0-2.698 1.698c-.283 1.248.467 2.43 1.7 2.695a2.22 2.22 0 0 0 2.698-1.698c.283-1.248-.467-2.412-1.7-2.695m-.75-4.708a2.216 2.216 0 0 0 .35-3.162c-.799-.999-2.182-1.13-3.166-.35a2.216 2.216 0 0 0-.35 3.162c.801 1 2.183 1.131 3.166.35M12.081 0c-1.3 0-2.266.999-2.266 2.264s.966 2.263 2.266 2.263a2.236 2.236 0 0 0 2.266-2.263A2.236 2.236 0 0 0 12.081 0m29.674 7.247c-2.35 0-4.129.856-4.976 2.31V2.594h-2.987V20.77h2.987v-6.657c0-1.276.375-2.31 1.125-3.118s1.697-1.211 2.888-1.211c2.398 0 3.444 1.502 3.444 4.33v6.656h2.986v-6.657c0-2.23-.424-3.941-1.29-5.106-.864-1.164-2.25-1.761-4.177-1.761m18.54 6.854c0 1.294-.327 2.343-.98 3.136-.653.791-1.583 1.18-2.774 1.18-2.236 0-3.165-1.488-3.165-4.316V7.443h-3.003v6.674c0 2.182.343 3.798 1.142 5.01.799 1.227 2.154 1.841 4.03 1.841 2.267.017 3.85-.76 4.748-2.294l.13 2.1h2.856V7.445h-2.986V14.1zm23.89-6.87c-2.611 0-4.456 1.018-5.32 2.876-.718-1.922-2.219-2.876-4.487-2.876-2.432 0-3.933.712-4.748 2.311l-.13-2.1h-2.825v13.33h2.987v-6.658q0-1.963.978-3.15c.636-.791 1.55-1.18 2.708-1.18 2.186 0 3.1 1.503 3.1 4.33v6.657h3.004v-6.657c0-1.308.31-2.359.963-3.15.636-.791 1.549-1.18 2.708-1.18 2.187 0 3.1 1.503 3.1 4.33v6.657h2.986v-6.657c0-2.196-.326-3.797-1.077-5.024-.767-1.211-2.103-1.842-3.947-1.859m14.879.016c-1.958 0-3.754.68-5.075 1.859-1.322 1.18-2.154 2.973-2.154 5.009s.832 3.83 2.154 4.992c1.321 1.18 3.134 1.86 5.075 1.86 1.387 0 2.66-.34 3.819-1.003s2.04-1.568 2.628-2.714l-2.563-1.211c-.719 1.6-2.137 2.553-3.9 2.553a4.04 4.04 0 0 1-2.676-.969c-.767-.645-1.256-1.487-1.452-2.52h11.244c.13-2.343-.588-4.38-1.861-5.721-1.275-1.327-3.151-2.135-5.24-2.135m-4.145 5.866c.195-1.05.668-1.89 1.42-2.536.75-.631 1.648-.954 2.725-.954s1.991.323 2.742.954c.75.63 1.224 1.485 1.42 2.536z"/></g></svg>